M48
; DRILL file KiCad 10.0.6 date 2026-10-09T23:38:42
; FORMAT={-:-/ absolute / metric / decimal}
; #@! TF.CreationDate,2026-10-09T23:38:42+01:00
; #@! TF.GenerationSoftware,Kicad,Pcbnew,10.0.6
; #@! TF.FileFunction,MixedPlating,1,4
FMAT,2
METRIC
; #@! TA.AperFunction,Plated,PTH,ViaDrill
T1C0.300
; #@! TA.AperFunction,Plated,PTH,ComponentDrill
T2C0.600
; #@! TA.AperFunction,NonPlated,NPTH,ComponentDrill
T3C0.650
; #@! TA.AperFunction,NonPlated,NPTH,ComponentDrill
T4C0.991
%
G90
G05
T1
X100.888Y-118.458
X104.73Y-114.153
X105.0Y-108.789
X106.236Y-115.0
X106.469Y-123.685
X106.718Y-112.732
X107.553Y-123.437
X107.588Y-108.864
X108.309Y-104.373
X108.555Y-123.543
X109.01Y-117.828
X109.219Y-109.143
X112.637Y-109.305
X112.737Y-114.764
X113.211Y-112.776
X113.219Y-117.05
X113.522Y-121.4
X113.659Y-119.748
X114.8Y-114.851
X115.614Y-117.654
X115.747Y-108.807
X115.767Y-110.411
X116.38Y-113.433
X117.109Y-114.873
X118.548Y-105.209
X118.75Y-114.388
X120.969Y-128.641
X122.076Y-116.625
X123.314Y-116.739
X123.962Y-113.719
X124.618Y-116.224
X124.918Y-111.786
X126.087Y-114.25
X126.114Y-117.338
X126.568Y-119.924
X126.764Y-125.982
X126.86Y-120.973
X127.123Y-110.595
X127.3Y-116.206
X127.368Y-117.37
X127.5Y-124.198
X127.52Y-118.533
X128.0Y-122.625
X128.223Y-111.296
X128.247Y-108.673
X128.319Y-120.254
X128.759Y-108.003
X128.971Y-114.175
X129.07Y-119.89
X129.089Y-120.814
X129.121Y-110.48
X129.124Y-109.509
X129.174Y-111.982
X129.239Y-125.98
X129.937Y-123.25
X130.141Y-104.673
X130.316Y-103.908
X131.43Y-110.326
X131.69Y-124.318
X132.389Y-112.561
X132.75Y-101.296
X132.759Y-123.5
X132.795Y-122.502
X133.108Y-120.896
X133.53Y-116.902
X133.755Y-125.982
X134.5Y-120.357
X134.52Y-118.526
X134.572Y-113.908
X135.2Y-122.613
X135.48Y-120.064
X135.48Y-126.366
X136.138Y-120.855
X136.138Y-124.13
X136.674Y-115.43
X137.217Y-121.5
X137.224Y-123.0
X138.417Y-120.225
X139.925Y-116.975
X139.926Y-114.072
X140.88Y-108.7
X142.25Y-111.722
T3
X105.11Y-123.7
X110.89Y-123.7
T4
X132.26Y-115.4
X137.34Y-114.384
X137.34Y-116.416
T2
X103.68Y-122.62G85X103.68Y-123.72
G05
X103.68Y-127.05G85X103.68Y-127.65
G05
X112.32Y-122.62G85X112.32Y-123.72
G05
X112.32Y-127.05G85X112.32Y-127.65
G05
M30
