%TF.GenerationSoftware,KiCad,Pcbnew,10.0.6*%
%TF.CreationDate,2026-10-09T23:38:41+01:00*%
%TF.ProjectId,pmd-tracker,706d642d-7472-4616-936b-65722e6b6963,rev?*%
%TF.SameCoordinates,Original*%
%TF.FileFunction,Copper,L3,Inr*%
%TF.FilePolarity,Positive*%
%FSLAX46Y46*%
G04 Gerber Fmt 4.6, Leading zero omitted, Abs format (unit mm)*
G04 Created by KiCad (PCBNEW 10.0.6) date 2026-10-09 23:38:41*
%MOMM*%
%LPD*%
G01*
G04 APERTURE LIST*
%TA.AperFunction,ComponentPad*%
%ADD10O,1.000000X2.100000*%
%TD*%
%TA.AperFunction,ComponentPad*%
%ADD11O,1.000000X1.600000*%
%TD*%
%TA.AperFunction,ViaPad*%
%ADD12C,0.600000*%
%TD*%
%TA.AperFunction,Conductor*%
%ADD13C,0.400000*%
%TD*%
%TA.AperFunction,Conductor*%
%ADD14C,0.150000*%
%TD*%
G04 APERTURE END LIST*
D10*
%TO.N,/GND*%
%TO.C,J1*%
X103680000Y-123170000D03*
D11*
X103680000Y-127350000D03*
D10*
X112320000Y-123170000D03*
D11*
X112320000Y-127350000D03*
%TD*%
D12*
%TO.N,/GND*%
X137223500Y-123000000D03*
X109010000Y-117827700D03*
X132759300Y-123500000D03*
X140879800Y-108700000D03*
X112737200Y-114764300D03*
X100888200Y-118458400D03*
X139925800Y-114072000D03*
X113219100Y-117050400D03*
X132750000Y-101295700D03*
X129174100Y-111981600D03*
X109218700Y-109142700D03*
X120968800Y-128640900D03*
X128000000Y-122625100D03*
X108309000Y-104373000D03*
X134500000Y-120357200D03*
X136674500Y-115430500D03*
X142250000Y-111722300D03*
X117108900Y-114873300D03*
X135480000Y-126366200D03*
X106718400Y-112732300D03*
X137217000Y-121500000D03*
X118548200Y-105209500D03*
X129069900Y-119889900D03*
X135480000Y-120064500D03*
X115613900Y-117653700D03*
X129239000Y-125980100D03*
X106235600Y-114999700D03*
X127300000Y-116206100D03*
X116379600Y-113433200D03*
X129124500Y-109508700D03*
X132794700Y-122501600D03*
X139924600Y-116975500D03*
X113211100Y-112776200D03*
X105000000Y-108789400D03*
X115747400Y-108807000D03*
%TO.N,/VBUS*%
X126113800Y-117338300D03*
X113521700Y-121399700D03*
%TO.N,/PROG*%
X107587800Y-108864400D03*
X104729500Y-114153200D03*
%TO.N,/+3V3*%
X129937300Y-123250000D03*
X127520000Y-118533100D03*
X112637500Y-109305400D03*
X133108300Y-120895800D03*
X114800200Y-114851100D03*
X136137600Y-120855500D03*
X115766600Y-110411400D03*
X127500000Y-124198500D03*
X129120600Y-110480000D03*
X131429600Y-110326500D03*
X134520000Y-118526300D03*
X133755300Y-125981700D03*
X124617900Y-116224200D03*
X133530000Y-116902200D03*
X128970600Y-114175300D03*
X126763800Y-125981700D03*
%TO.N,/SPI_SCK*%
X127368200Y-117369600D03*
X135199900Y-122612600D03*
%TO.N,/SPI_MOSI*%
X126567600Y-119924100D03*
X129089500Y-120814100D03*
%TO.N,/SPI_MISO*%
X126859800Y-120972900D03*
X127123500Y-110594700D03*
X131690000Y-124317700D03*
%TO.N,/ADXL_CS*%
X136137600Y-124129600D03*
X128223100Y-111296500D03*
%TO.N,/ADXL_INT1*%
X138417500Y-120224600D03*
X128758800Y-108003200D03*
%TO.N,/IMU_CS*%
X128318700Y-120254200D03*
X128247000Y-108673400D03*
%TO.N,/CC1*%
X106468700Y-123684800D03*
X113658800Y-119748200D03*
%TO.N,/UART_RX*%
X130316100Y-103908100D03*
X123313800Y-116738800D03*
%TO.N,/UART_TX*%
X130141300Y-104673300D03*
X122075900Y-116624600D03*
%TO.N,/GNSS_RESET_N*%
X118750000Y-114388500D03*
X132389400Y-112560600D03*
%TO.N,/NRST*%
X134571600Y-113908500D03*
X124917700Y-111786500D03*
%TO.N,/USB_DN*%
X126087500Y-114250000D03*
X107553500Y-123437300D03*
%TO.N,/USB_DP*%
X123962200Y-113718800D03*
X108555400Y-123543000D03*
%TD*%
%TO.N,/VBUS*%
D13*
X122052400Y-121399700D02*
X126113800Y-117338300D01*
X113521700Y-121399700D02*
X122052400Y-121399700D01*
%TO.N,/SPI_MOSI*%
D14*
X127457600Y-120814100D02*
X126567600Y-119924100D01*
X129089500Y-120814100D02*
X127457600Y-120814100D01*
%TO.N,/CC1*%
X106468700Y-123684800D02*
X110405300Y-119748200D01*
X110405300Y-119748200D02*
X113658800Y-119748200D01*
%TO.N,/GNSS_RESET_N*%
X120577900Y-112560600D02*
X132389400Y-112560600D01*
X118750000Y-114388500D02*
X120577900Y-112560600D01*
%TO.N,/NRST*%
X127713000Y-110041500D02*
X126662700Y-110041500D01*
X132118000Y-111454900D02*
X129126400Y-111454900D01*
X126662700Y-110041500D02*
X124917700Y-111786500D01*
X134571600Y-113908500D02*
X132118000Y-111454900D01*
X129126400Y-111454900D02*
X127713000Y-110041500D01*
%TO.N,/USB_DN*%
X107553500Y-123437300D02*
X110331200Y-120659600D01*
X114310900Y-120659600D02*
X120720500Y-114250000D01*
X110331200Y-120659600D02*
X114310900Y-120659600D01*
X120720500Y-114250000D02*
X126087500Y-114250000D01*
%TD*%
%TA.AperFunction,Conductor*%
%TO.N,/+3V3*%
G36*
X116269184Y-100418907D02*
G01*
X116305148Y-100468407D01*
X116305148Y-100529593D01*
X116300000Y-100537993D01*
X116300000Y-100550000D01*
X116300000Y-104300000D01*
X116300001Y-104300000D01*
X128699999Y-104300000D01*
X128700000Y-104300000D01*
X128700000Y-101223225D01*
X132199500Y-101223225D01*
X132199500Y-101368174D01*
X132237017Y-101508189D01*
X132309487Y-101633710D01*
X132309489Y-101633712D01*
X132309491Y-101633715D01*
X132411985Y-101736209D01*
X132411987Y-101736210D01*
X132411989Y-101736212D01*
X132537511Y-101808682D01*
X132537512Y-101808682D01*
X132537515Y-101808684D01*
X132677525Y-101846200D01*
X132677526Y-101846200D01*
X132822474Y-101846200D01*
X132822475Y-101846200D01*
X132962485Y-101808684D01*
X132962487Y-101808682D01*
X132962489Y-101808682D01*
X133088010Y-101736212D01*
X133088010Y-101736211D01*
X133088015Y-101736209D01*
X133190509Y-101633715D01*
X133190512Y-101633710D01*
X133262982Y-101508189D01*
X133262982Y-101508187D01*
X133262984Y-101508185D01*
X133300500Y-101368175D01*
X133300500Y-101223225D01*
X133262984Y-101083215D01*
X133262982Y-101083212D01*
X133262982Y-101083210D01*
X133190512Y-100957689D01*
X133190510Y-100957687D01*
X133190509Y-100957685D01*
X133088015Y-100855191D01*
X133088012Y-100855189D01*
X133088010Y-100855187D01*
X132962488Y-100782717D01*
X132962489Y-100782717D01*
X132932896Y-100774787D01*
X132822475Y-100745200D01*
X132677525Y-100745200D01*
X132615790Y-100761741D01*
X132537510Y-100782717D01*
X132411989Y-100855187D01*
X132309487Y-100957689D01*
X132237017Y-101083210D01*
X132199500Y-101223225D01*
X128700000Y-101223225D01*
X128700000Y-100550000D01*
X128700000Y-100531707D01*
X128691226Y-100514487D01*
X128700797Y-100454055D01*
X128744062Y-100410790D01*
X128789007Y-100400000D01*
X142697160Y-100400000D01*
X142724567Y-100403869D01*
X142886252Y-100450449D01*
X142896727Y-100454115D01*
X143166135Y-100565707D01*
X143176129Y-100570520D01*
X143431352Y-100711577D01*
X143431354Y-100711578D01*
X143440755Y-100717485D01*
X143678575Y-100886228D01*
X143687254Y-100893149D01*
X143759475Y-100957689D01*
X143904697Y-101087467D01*
X143912532Y-101095302D01*
X144006053Y-101199952D01*
X144106850Y-101312745D01*
X144113771Y-101321424D01*
X144282514Y-101559244D01*
X144288421Y-101568645D01*
X144429477Y-101823866D01*
X144434294Y-101833869D01*
X144545883Y-102103271D01*
X144549550Y-102113749D01*
X144596131Y-102275432D01*
X144600000Y-102302839D01*
X144600000Y-127697159D01*
X144596131Y-127724566D01*
X144549551Y-127886247D01*
X144545884Y-127896726D01*
X144434291Y-128166134D01*
X144429474Y-128176136D01*
X144288421Y-128431353D01*
X144282515Y-128440753D01*
X144132047Y-128652817D01*
X144113773Y-128678574D01*
X144113769Y-128678579D01*
X144106851Y-128687252D01*
X143958628Y-128853114D01*
X143912538Y-128904689D01*
X143904689Y-128912538D01*
X143687255Y-129106850D01*
X143678579Y-129113769D01*
X143440753Y-129282515D01*
X143431353Y-129288421D01*
X143176136Y-129429474D01*
X143166134Y-129434291D01*
X142896726Y-129545884D01*
X142886247Y-129549551D01*
X142724567Y-129596131D01*
X142697160Y-129600000D01*
X102302840Y-129600000D01*
X102275433Y-129596131D01*
X102113749Y-129549550D01*
X102103271Y-129545883D01*
X101833869Y-129434294D01*
X101823866Y-129429477D01*
X101568645Y-129288421D01*
X101559244Y-129282514D01*
X101321424Y-129113771D01*
X101312745Y-129106850D01*
X101211695Y-129016547D01*
X101095302Y-128912532D01*
X101087467Y-128904697D01*
X100893154Y-128687260D01*
X100893149Y-128687254D01*
X100886227Y-128678574D01*
X100844116Y-128619224D01*
X100844115Y-128619223D01*
X100808072Y-128568425D01*
X120418300Y-128568425D01*
X120418300Y-128713374D01*
X120455817Y-128853389D01*
X120528287Y-128978910D01*
X120528289Y-128978912D01*
X120528291Y-128978915D01*
X120630785Y-129081409D01*
X120630787Y-129081410D01*
X120630789Y-129081412D01*
X120756311Y-129153882D01*
X120756312Y-129153882D01*
X120756315Y-129153884D01*
X120896325Y-129191400D01*
X120896326Y-129191400D01*
X121041274Y-129191400D01*
X121041275Y-129191400D01*
X121181285Y-129153884D01*
X121181287Y-129153882D01*
X121181289Y-129153882D01*
X121306810Y-129081412D01*
X121306810Y-129081411D01*
X121306815Y-129081409D01*
X121409309Y-128978915D01*
X121449770Y-128908835D01*
X121481782Y-128853389D01*
X121481782Y-128853387D01*
X121481784Y-128853385D01*
X121519300Y-128713375D01*
X121519300Y-128568425D01*
X121481784Y-128428415D01*
X121481782Y-128428412D01*
X121481782Y-128428410D01*
X121409312Y-128302889D01*
X121409310Y-128302887D01*
X121409309Y-128302885D01*
X121306815Y-128200391D01*
X121306812Y-128200389D01*
X121306810Y-128200387D01*
X121181288Y-128127917D01*
X121181289Y-128127917D01*
X121151696Y-128119987D01*
X121041275Y-128090400D01*
X120896325Y-128090400D01*
X120834590Y-128106941D01*
X120756310Y-128127917D01*
X120630789Y-128200387D01*
X120528287Y-128302889D01*
X120455817Y-128428410D01*
X120418300Y-128568425D01*
X100808072Y-128568425D01*
X100717485Y-128440755D01*
X100711578Y-128431354D01*
X100570520Y-128176129D01*
X100565705Y-128166130D01*
X100550083Y-128128416D01*
X100454115Y-127896726D01*
X100450449Y-127886250D01*
X100441562Y-127855404D01*
X100403869Y-127724566D01*
X100400000Y-127697159D01*
X100400000Y-126976081D01*
X102929500Y-126976081D01*
X102929500Y-126976082D01*
X102929500Y-127723918D01*
X102958342Y-127868913D01*
X103014916Y-128005495D01*
X103097049Y-128128416D01*
X103201584Y-128232951D01*
X103324505Y-128315084D01*
X103461087Y-128371658D01*
X103606082Y-128400500D01*
X103606083Y-128400500D01*
X103753917Y-128400500D01*
X103753918Y-128400500D01*
X103898913Y-128371658D01*
X104035495Y-128315084D01*
X104158416Y-128232951D01*
X104262951Y-128128416D01*
X104345084Y-128005495D01*
X104401658Y-127868913D01*
X104430500Y-127723918D01*
X104430500Y-126976082D01*
X104430500Y-126976081D01*
X111569500Y-126976081D01*
X111569500Y-126976082D01*
X111569500Y-127723918D01*
X111598342Y-127868913D01*
X111654916Y-128005495D01*
X111737049Y-128128416D01*
X111841584Y-128232951D01*
X111964505Y-128315084D01*
X112101087Y-128371658D01*
X112246082Y-128400500D01*
X112246083Y-128400500D01*
X112393917Y-128400500D01*
X112393918Y-128400500D01*
X112538913Y-128371658D01*
X112675495Y-128315084D01*
X112798416Y-128232951D01*
X112902951Y-128128416D01*
X112985084Y-128005495D01*
X113041658Y-127868913D01*
X113070500Y-127723918D01*
X113070500Y-126976082D01*
X113041658Y-126831087D01*
X112985084Y-126694505D01*
X112902951Y-126571584D01*
X112798416Y-126467049D01*
X112675495Y-126384916D01*
X112675493Y-126384915D01*
X112538914Y-126328342D01*
X112393918Y-126299500D01*
X112246082Y-126299500D01*
X112246081Y-126299500D01*
X112101085Y-126328342D01*
X111964506Y-126384915D01*
X111841585Y-126467048D01*
X111737048Y-126571585D01*
X111654915Y-126694506D01*
X111598342Y-126831085D01*
X111569500Y-126976081D01*
X104430500Y-126976081D01*
X104401658Y-126831087D01*
X104345084Y-126694505D01*
X104262951Y-126571584D01*
X104158416Y-126467049D01*
X104035495Y-126384916D01*
X104035493Y-126384915D01*
X103898914Y-126328342D01*
X103753918Y-126299500D01*
X103606082Y-126299500D01*
X103606081Y-126299500D01*
X103461085Y-126328342D01*
X103324506Y-126384915D01*
X103201585Y-126467048D01*
X103097048Y-126571585D01*
X103014915Y-126694506D01*
X102958342Y-126831085D01*
X102929500Y-126976081D01*
X100400000Y-126976081D01*
X100400000Y-125907625D01*
X128688500Y-125907625D01*
X128688500Y-126052574D01*
X128726017Y-126192589D01*
X128798487Y-126318110D01*
X128798489Y-126318112D01*
X128798491Y-126318115D01*
X128900985Y-126420609D01*
X128900987Y-126420610D01*
X128900989Y-126420612D01*
X129026511Y-126493082D01*
X129026512Y-126493082D01*
X129026515Y-126493084D01*
X129166525Y-126530600D01*
X129166526Y-126530600D01*
X129311474Y-126530600D01*
X129311475Y-126530600D01*
X129451485Y-126493084D01*
X129451487Y-126493082D01*
X129451489Y-126493082D01*
X129577010Y-126420612D01*
X129577010Y-126420611D01*
X129577015Y-126420609D01*
X129679509Y-126318115D01*
X129690257Y-126299500D01*
X129693591Y-126293725D01*
X134929500Y-126293725D01*
X134929500Y-126438675D01*
X134944079Y-126493084D01*
X134967017Y-126578689D01*
X135039487Y-126704210D01*
X135039489Y-126704212D01*
X135039491Y-126704215D01*
X135141985Y-126806709D01*
X135141987Y-126806710D01*
X135141989Y-126806712D01*
X135267511Y-126879182D01*
X135267512Y-126879182D01*
X135267515Y-126879184D01*
X135407525Y-126916700D01*
X135407526Y-126916700D01*
X135552474Y-126916700D01*
X135552475Y-126916700D01*
X135692485Y-126879184D01*
X135692487Y-126879182D01*
X135692489Y-126879182D01*
X135818010Y-126806712D01*
X135818010Y-126806711D01*
X135818015Y-126806709D01*
X135920509Y-126704215D01*
X135992984Y-126578685D01*
X136030500Y-126438675D01*
X136030500Y-126293725D01*
X135992984Y-126153715D01*
X135992982Y-126153712D01*
X135992982Y-126153710D01*
X135920512Y-126028189D01*
X135920510Y-126028187D01*
X135920509Y-126028185D01*
X135818015Y-125925691D01*
X135818012Y-125925689D01*
X135818010Y-125925687D01*
X135692488Y-125853217D01*
X135692489Y-125853217D01*
X135662896Y-125845287D01*
X135552475Y-125815700D01*
X135407525Y-125815700D01*
X135345790Y-125832241D01*
X135267510Y-125853217D01*
X135141989Y-125925687D01*
X135039487Y-126028189D01*
X134967017Y-126153710D01*
X134929500Y-126293725D01*
X129693591Y-126293725D01*
X129725912Y-126237743D01*
X129725916Y-126237736D01*
X129727171Y-126235561D01*
X129751984Y-126192585D01*
X129789500Y-126052575D01*
X129789500Y-125907625D01*
X129751984Y-125767615D01*
X129751982Y-125767612D01*
X129751982Y-125767610D01*
X129679512Y-125642089D01*
X129679510Y-125642087D01*
X129679509Y-125642085D01*
X129577015Y-125539591D01*
X129577012Y-125539589D01*
X129577010Y-125539587D01*
X129451488Y-125467117D01*
X129451489Y-125467117D01*
X129421896Y-125459187D01*
X129311475Y-125429600D01*
X129166525Y-125429600D01*
X129104790Y-125446141D01*
X129026510Y-125467117D01*
X128900989Y-125539587D01*
X128798487Y-125642089D01*
X128726017Y-125767610D01*
X128688500Y-125907625D01*
X100400000Y-125907625D01*
X100400000Y-122546081D01*
X102929500Y-122546081D01*
X102929500Y-123793918D01*
X102958342Y-123938914D01*
X102993033Y-124022665D01*
X103014916Y-124075495D01*
X103097049Y-124198416D01*
X103201584Y-124302951D01*
X103324505Y-124385084D01*
X103461087Y-124441658D01*
X103606082Y-124470500D01*
X103606083Y-124470500D01*
X103753917Y-124470500D01*
X103753918Y-124470500D01*
X103898913Y-124441658D01*
X104035495Y-124385084D01*
X104158416Y-124302951D01*
X104262951Y-124198416D01*
X104345084Y-124075495D01*
X104401658Y-123938913D01*
X104416104Y-123866286D01*
X104446001Y-123812904D01*
X104501566Y-123787288D01*
X104561576Y-123799225D01*
X104603108Y-123844155D01*
X104608827Y-123859974D01*
X104620312Y-123902836D01*
X104689495Y-124022665D01*
X104787335Y-124120505D01*
X104907164Y-124189688D01*
X105040817Y-124225500D01*
X105040819Y-124225500D01*
X105179181Y-124225500D01*
X105179183Y-124225500D01*
X105312836Y-124189688D01*
X105432665Y-124120505D01*
X105530505Y-124022665D01*
X105599688Y-123902836D01*
X105635500Y-123769183D01*
X105635500Y-123630817D01*
X105630545Y-123612325D01*
X105918200Y-123612325D01*
X105918200Y-123757275D01*
X105941480Y-123844155D01*
X105955717Y-123897289D01*
X106028187Y-124022810D01*
X106028189Y-124022812D01*
X106028191Y-124022815D01*
X106130685Y-124125309D01*
X106130687Y-124125310D01*
X106130689Y-124125312D01*
X106256211Y-124197782D01*
X106256212Y-124197782D01*
X106256215Y-124197784D01*
X106396225Y-124235300D01*
X106396226Y-124235300D01*
X106541174Y-124235300D01*
X106541175Y-124235300D01*
X106681185Y-124197784D01*
X106681187Y-124197782D01*
X106681189Y-124197782D01*
X106806710Y-124125312D01*
X106806710Y-124125311D01*
X106806715Y-124125309D01*
X106909209Y-124022815D01*
X106981684Y-123897285D01*
X106990827Y-123863160D01*
X107024148Y-123811848D01*
X107081269Y-123789920D01*
X107140370Y-123805754D01*
X107156451Y-123818775D01*
X107215485Y-123877809D01*
X107215487Y-123877810D01*
X107215489Y-123877812D01*
X107341011Y-123950282D01*
X107341012Y-123950282D01*
X107341015Y-123950284D01*
X107481025Y-123987800D01*
X107481026Y-123987800D01*
X107625974Y-123987800D01*
X107625975Y-123987800D01*
X107765985Y-123950284D01*
X107765987Y-123950282D01*
X107765989Y-123950282D01*
X107891510Y-123877812D01*
X107891510Y-123877811D01*
X107891515Y-123877809D01*
X107940727Y-123828596D01*
X107995241Y-123800820D01*
X108055673Y-123810391D01*
X108096464Y-123849099D01*
X108114891Y-123881015D01*
X108217385Y-123983509D01*
X108217387Y-123983510D01*
X108217389Y-123983512D01*
X108342911Y-124055982D01*
X108342912Y-124055982D01*
X108342915Y-124055984D01*
X108482925Y-124093500D01*
X108482926Y-124093500D01*
X108627874Y-124093500D01*
X108627875Y-124093500D01*
X108767885Y-124055984D01*
X108767887Y-124055982D01*
X108767889Y-124055982D01*
X108893410Y-123983512D01*
X108893410Y-123983511D01*
X108893415Y-123983509D01*
X108995909Y-123881015D01*
X109039960Y-123804717D01*
X109068382Y-123755489D01*
X109068382Y-123755487D01*
X109068384Y-123755485D01*
X109101789Y-123630817D01*
X110364500Y-123630817D01*
X110364500Y-123769183D01*
X110400312Y-123902836D01*
X110469495Y-124022665D01*
X110567335Y-124120505D01*
X110687164Y-124189688D01*
X110820817Y-124225500D01*
X110820819Y-124225500D01*
X110959181Y-124225500D01*
X110959183Y-124225500D01*
X111092836Y-124189688D01*
X111212665Y-124120505D01*
X111310505Y-124022665D01*
X111379688Y-123902836D01*
X111391171Y-123859978D01*
X111424493Y-123808666D01*
X111481614Y-123786738D01*
X111540715Y-123802573D01*
X111579221Y-123850122D01*
X111583894Y-123866287D01*
X111598339Y-123938904D01*
X111598342Y-123938914D01*
X111633033Y-124022665D01*
X111654916Y-124075495D01*
X111737049Y-124198416D01*
X111841584Y-124302951D01*
X111964505Y-124385084D01*
X112101087Y-124441658D01*
X112246082Y-124470500D01*
X112246083Y-124470500D01*
X112393917Y-124470500D01*
X112393918Y-124470500D01*
X112538913Y-124441658D01*
X112675495Y-124385084D01*
X112798416Y-124302951D01*
X112856142Y-124245225D01*
X131139500Y-124245225D01*
X131139500Y-124390174D01*
X131177017Y-124530189D01*
X131249487Y-124655710D01*
X131249489Y-124655712D01*
X131249491Y-124655715D01*
X131351985Y-124758209D01*
X131351987Y-124758210D01*
X131351989Y-124758212D01*
X131477511Y-124830682D01*
X131477512Y-124830682D01*
X131477515Y-124830684D01*
X131617525Y-124868200D01*
X131617526Y-124868200D01*
X131762474Y-124868200D01*
X131762475Y-124868200D01*
X131902485Y-124830684D01*
X131902487Y-124830682D01*
X131902489Y-124830682D01*
X132028010Y-124758212D01*
X132028010Y-124758211D01*
X132028015Y-124758209D01*
X132130509Y-124655715D01*
X132202984Y-124530185D01*
X132240500Y-124390175D01*
X132240500Y-124245225D01*
X132202984Y-124105215D01*
X132202982Y-124105212D01*
X132202982Y-124105210D01*
X132175220Y-124057125D01*
X135587100Y-124057125D01*
X135587100Y-124202074D01*
X135624617Y-124342089D01*
X135697087Y-124467610D01*
X135697089Y-124467612D01*
X135697091Y-124467615D01*
X135799585Y-124570109D01*
X135799587Y-124570110D01*
X135799589Y-124570112D01*
X135925111Y-124642582D01*
X135925112Y-124642582D01*
X135925115Y-124642584D01*
X136065125Y-124680100D01*
X136065126Y-124680100D01*
X136210074Y-124680100D01*
X136210075Y-124680100D01*
X136350085Y-124642584D01*
X136350087Y-124642582D01*
X136350089Y-124642582D01*
X136475610Y-124570112D01*
X136475610Y-124570111D01*
X136475615Y-124570109D01*
X136578109Y-124467615D01*
X136622820Y-124390174D01*
X136650582Y-124342089D01*
X136650582Y-124342087D01*
X136650584Y-124342085D01*
X136688100Y-124202075D01*
X136688100Y-124057125D01*
X136650584Y-123917115D01*
X136650582Y-123917112D01*
X136650582Y-123917110D01*
X136578112Y-123791589D01*
X136578110Y-123791587D01*
X136578109Y-123791585D01*
X136475615Y-123689091D01*
X136475612Y-123689089D01*
X136475610Y-123689087D01*
X136350088Y-123616617D01*
X136350089Y-123616617D01*
X136320496Y-123608687D01*
X136210075Y-123579100D01*
X136065125Y-123579100D01*
X136026417Y-123589472D01*
X135925110Y-123616617D01*
X135799589Y-123689087D01*
X135697087Y-123791589D01*
X135624617Y-123917110D01*
X135587100Y-124057125D01*
X132175220Y-124057125D01*
X132130512Y-123979689D01*
X132130510Y-123979687D01*
X132130509Y-123979685D01*
X132028015Y-123877191D01*
X132028012Y-123877189D01*
X132028010Y-123877187D01*
X131902488Y-123804717D01*
X131902489Y-123804717D01*
X131847266Y-123789920D01*
X131762475Y-123767200D01*
X131617525Y-123767200D01*
X131587240Y-123775315D01*
X131477510Y-123804717D01*
X131351989Y-123877187D01*
X131249487Y-123979689D01*
X131177017Y-124105210D01*
X131139500Y-124245225D01*
X112856142Y-124245225D01*
X112902951Y-124198416D01*
X112985084Y-124075495D01*
X113041658Y-123938913D01*
X113070500Y-123793918D01*
X113070500Y-123427525D01*
X132208800Y-123427525D01*
X132208800Y-123572475D01*
X132215738Y-123598367D01*
X132246317Y-123712489D01*
X132318787Y-123838010D01*
X132318789Y-123838012D01*
X132318791Y-123838015D01*
X132421285Y-123940509D01*
X132421287Y-123940510D01*
X132421289Y-123940512D01*
X132546811Y-124012982D01*
X132546812Y-124012982D01*
X132546815Y-124012984D01*
X132686825Y-124050500D01*
X132686826Y-124050500D01*
X132831774Y-124050500D01*
X132831775Y-124050500D01*
X132971785Y-124012984D01*
X132971787Y-124012982D01*
X132971789Y-124012982D01*
X133055070Y-123964900D01*
X133097310Y-123940512D01*
X133097310Y-123940511D01*
X133097315Y-123940509D01*
X133199809Y-123838015D01*
X133205246Y-123828598D01*
X133272282Y-123712489D01*
X133272282Y-123712487D01*
X133272284Y-123712485D01*
X133309800Y-123572475D01*
X133309800Y-123427525D01*
X133272284Y-123287515D01*
X133272282Y-123287512D01*
X133272282Y-123287510D01*
X133199812Y-123161989D01*
X133199810Y-123161987D01*
X133199809Y-123161985D01*
X133126088Y-123088264D01*
X133098313Y-123033750D01*
X133107884Y-122973318D01*
X133129163Y-122947734D01*
X133128126Y-122946697D01*
X133132712Y-122942110D01*
X133132715Y-122942109D01*
X133235209Y-122839615D01*
X133307684Y-122714085D01*
X133345200Y-122574075D01*
X133345200Y-122540125D01*
X134649400Y-122540125D01*
X134649400Y-122685075D01*
X134676848Y-122787510D01*
X134686917Y-122825089D01*
X134759387Y-122950610D01*
X134759389Y-122950612D01*
X134759391Y-122950615D01*
X134861885Y-123053109D01*
X134861887Y-123053110D01*
X134861889Y-123053112D01*
X134987411Y-123125582D01*
X134987412Y-123125582D01*
X134987415Y-123125584D01*
X135127425Y-123163100D01*
X135127426Y-123163100D01*
X135272374Y-123163100D01*
X135272375Y-123163100D01*
X135412385Y-123125584D01*
X135412387Y-123125582D01*
X135412389Y-123125582D01*
X135537910Y-123053112D01*
X135537910Y-123053111D01*
X135537915Y-123053109D01*
X135640409Y-122950615D01*
X135653740Y-122927525D01*
X136673000Y-122927525D01*
X136673000Y-123072475D01*
X136697283Y-123163100D01*
X136710517Y-123212489D01*
X136782987Y-123338010D01*
X136782989Y-123338012D01*
X136782991Y-123338015D01*
X136885485Y-123440509D01*
X136885487Y-123440510D01*
X136885489Y-123440512D01*
X137011011Y-123512982D01*
X137011012Y-123512982D01*
X137011015Y-123512984D01*
X137151025Y-123550500D01*
X137151026Y-123550500D01*
X137295974Y-123550500D01*
X137295975Y-123550500D01*
X137435985Y-123512984D01*
X137435987Y-123512982D01*
X137435989Y-123512982D01*
X137561510Y-123440512D01*
X137561510Y-123440511D01*
X137561515Y-123440509D01*
X137664009Y-123338015D01*
X137736484Y-123212485D01*
X137774000Y-123072475D01*
X137774000Y-122927525D01*
X137736484Y-122787515D01*
X137736482Y-122787512D01*
X137736482Y-122787510D01*
X137664012Y-122661989D01*
X137664010Y-122661987D01*
X137664009Y-122661985D01*
X137561515Y-122559491D01*
X137561512Y-122559489D01*
X137561510Y-122559487D01*
X137435988Y-122487017D01*
X137435989Y-122487017D01*
X137406396Y-122479087D01*
X137295975Y-122449500D01*
X137151025Y-122449500D01*
X137089290Y-122466041D01*
X137011010Y-122487017D01*
X136885489Y-122559487D01*
X136782987Y-122661989D01*
X136710517Y-122787510D01*
X136693353Y-122851567D01*
X136673000Y-122927525D01*
X135653740Y-122927525D01*
X135704498Y-122839611D01*
X135712882Y-122825089D01*
X135712882Y-122825087D01*
X135712884Y-122825085D01*
X135750400Y-122685075D01*
X135750400Y-122540125D01*
X135712884Y-122400115D01*
X135712882Y-122400112D01*
X135712882Y-122400110D01*
X135640412Y-122274589D01*
X135640410Y-122274587D01*
X135640409Y-122274585D01*
X135537915Y-122172091D01*
X135537912Y-122172089D01*
X135537910Y-122172087D01*
X135412388Y-122099617D01*
X135412389Y-122099617D01*
X135319025Y-122074600D01*
X135272375Y-122062100D01*
X135127425Y-122062100D01*
X135080775Y-122074600D01*
X134987410Y-122099617D01*
X134861889Y-122172087D01*
X134759387Y-122274589D01*
X134686917Y-122400110D01*
X134673683Y-122449500D01*
X134649400Y-122540125D01*
X133345200Y-122540125D01*
X133345200Y-122429125D01*
X133307684Y-122289115D01*
X133307682Y-122289112D01*
X133307682Y-122289110D01*
X133235212Y-122163589D01*
X133235210Y-122163587D01*
X133235209Y-122163585D01*
X133132715Y-122061091D01*
X133132712Y-122061089D01*
X133132710Y-122061087D01*
X133007188Y-121988617D01*
X133007189Y-121988617D01*
X132977596Y-121980687D01*
X132867175Y-121951100D01*
X132722225Y-121951100D01*
X132707984Y-121954916D01*
X132582210Y-121988617D01*
X132456689Y-122061087D01*
X132354187Y-122163589D01*
X132281717Y-122289110D01*
X132244200Y-122429125D01*
X132244200Y-122574074D01*
X132281717Y-122714089D01*
X132354187Y-122839610D01*
X132354189Y-122839612D01*
X132354191Y-122839615D01*
X132427910Y-122913334D01*
X132455686Y-122967849D01*
X132446115Y-123028281D01*
X132424841Y-123053870D01*
X132425874Y-123054903D01*
X132421287Y-123059489D01*
X132421285Y-123059491D01*
X132355194Y-123125582D01*
X132318788Y-123161988D01*
X132318787Y-123161989D01*
X132246317Y-123287510D01*
X132208800Y-123427525D01*
X113070500Y-123427525D01*
X113070500Y-122552625D01*
X127449500Y-122552625D01*
X127449500Y-122697574D01*
X127487017Y-122837589D01*
X127559487Y-122963110D01*
X127559489Y-122963112D01*
X127559491Y-122963115D01*
X127661985Y-123065609D01*
X127661987Y-123065610D01*
X127661989Y-123065612D01*
X127787511Y-123138082D01*
X127787512Y-123138082D01*
X127787515Y-123138084D01*
X127927525Y-123175600D01*
X127927526Y-123175600D01*
X128072474Y-123175600D01*
X128072475Y-123175600D01*
X128212485Y-123138084D01*
X128212487Y-123138082D01*
X128212489Y-123138082D01*
X128338010Y-123065612D01*
X128338010Y-123065611D01*
X128338015Y-123065609D01*
X128440509Y-122963115D01*
X128461057Y-122927525D01*
X128512982Y-122837589D01*
X128512982Y-122837587D01*
X128512984Y-122837585D01*
X128550500Y-122697575D01*
X128550500Y-122552625D01*
X128512984Y-122412615D01*
X128512982Y-122412612D01*
X128512982Y-122412610D01*
X128440512Y-122287089D01*
X128440510Y-122287087D01*
X128440509Y-122287085D01*
X128338015Y-122184591D01*
X128338012Y-122184589D01*
X128338010Y-122184587D01*
X128212488Y-122112117D01*
X128212489Y-122112117D01*
X128182896Y-122104187D01*
X128072475Y-122074600D01*
X127927525Y-122074600D01*
X127865790Y-122091141D01*
X127787510Y-122112117D01*
X127661989Y-122184587D01*
X127559487Y-122287089D01*
X127487017Y-122412610D01*
X127449500Y-122552625D01*
X113070500Y-122552625D01*
X113070500Y-122546082D01*
X113041658Y-122401087D01*
X112985084Y-122264505D01*
X112902951Y-122141584D01*
X112798416Y-122037049D01*
X112675495Y-121954916D01*
X112675493Y-121954915D01*
X112538914Y-121898342D01*
X112393918Y-121869500D01*
X112246082Y-121869500D01*
X112246081Y-121869500D01*
X112101085Y-121898342D01*
X111964506Y-121954915D01*
X111841585Y-122037048D01*
X111737048Y-122141585D01*
X111654915Y-122264506D01*
X111598342Y-122401085D01*
X111569500Y-122546081D01*
X111569500Y-123457704D01*
X111550593Y-123515895D01*
X111501093Y-123551859D01*
X111439907Y-123551859D01*
X111390407Y-123515895D01*
X111383031Y-123502726D01*
X111382932Y-123502784D01*
X111379688Y-123497166D01*
X111379688Y-123497164D01*
X111310505Y-123377335D01*
X111212665Y-123279495D01*
X111092836Y-123210312D01*
X110959183Y-123174500D01*
X110820817Y-123174500D01*
X110687164Y-123210312D01*
X110567335Y-123279495D01*
X110469495Y-123377335D01*
X110400312Y-123497164D01*
X110364500Y-123630817D01*
X109101789Y-123630817D01*
X109105900Y-123615475D01*
X109105900Y-123470525D01*
X109068384Y-123330515D01*
X109068382Y-123330512D01*
X109068382Y-123330510D01*
X108995912Y-123204989D01*
X108995910Y-123204987D01*
X108995909Y-123204985D01*
X108893415Y-123102491D01*
X108893412Y-123102489D01*
X108893410Y-123102487D01*
X108767888Y-123030017D01*
X108767884Y-123030015D01*
X108660022Y-123001113D01*
X108608708Y-122967789D01*
X108586782Y-122910667D01*
X108602618Y-122851567D01*
X108615637Y-122835488D01*
X110437031Y-121014096D01*
X110491548Y-120986319D01*
X110507035Y-120985100D01*
X112953934Y-120985100D01*
X113012125Y-121004007D01*
X113048089Y-121053507D01*
X113048089Y-121114693D01*
X113039670Y-121133600D01*
X113008717Y-121187210D01*
X112990657Y-121254612D01*
X112971200Y-121327225D01*
X112971200Y-121472175D01*
X112984926Y-121523400D01*
X113008717Y-121612189D01*
X113081187Y-121737710D01*
X113081189Y-121737712D01*
X113081191Y-121737715D01*
X113183685Y-121840209D01*
X113183687Y-121840210D01*
X113183689Y-121840212D01*
X113309211Y-121912682D01*
X113309212Y-121912682D01*
X113309215Y-121912684D01*
X113449225Y-121950200D01*
X113449226Y-121950200D01*
X113594174Y-121950200D01*
X113594175Y-121950200D01*
X113734185Y-121912684D01*
X113819437Y-121863463D01*
X113868936Y-121850200D01*
X122111709Y-121850200D01*
X122202069Y-121825987D01*
X122202072Y-121825987D01*
X122215303Y-121822441D01*
X122226287Y-121819499D01*
X122329014Y-121760189D01*
X124237577Y-119851625D01*
X126017100Y-119851625D01*
X126017100Y-119996575D01*
X126041118Y-120086210D01*
X126054617Y-120136589D01*
X126127087Y-120262110D01*
X126127089Y-120262112D01*
X126127091Y-120262115D01*
X126229585Y-120364609D01*
X126229587Y-120364610D01*
X126229589Y-120364612D01*
X126355111Y-120437082D01*
X126355109Y-120437082D01*
X126355113Y-120437083D01*
X126355115Y-120437084D01*
X126396100Y-120448066D01*
X126447413Y-120481389D01*
X126469340Y-120538510D01*
X126453505Y-120597611D01*
X126440481Y-120613694D01*
X126419292Y-120634883D01*
X126419287Y-120634889D01*
X126346817Y-120760410D01*
X126336823Y-120797709D01*
X126309300Y-120900425D01*
X126309300Y-121045375D01*
X126327874Y-121114693D01*
X126346817Y-121185389D01*
X126419287Y-121310910D01*
X126419289Y-121310912D01*
X126419291Y-121310915D01*
X126521785Y-121413409D01*
X126521787Y-121413410D01*
X126521789Y-121413412D01*
X126647311Y-121485882D01*
X126647312Y-121485882D01*
X126647315Y-121485884D01*
X126787325Y-121523400D01*
X126787326Y-121523400D01*
X126932274Y-121523400D01*
X126932275Y-121523400D01*
X127072285Y-121485884D01*
X127072287Y-121485882D01*
X127072289Y-121485882D01*
X127173366Y-121427525D01*
X136666500Y-121427525D01*
X136666500Y-121572475D01*
X136696087Y-121682896D01*
X136704017Y-121712489D01*
X136776487Y-121838010D01*
X136776489Y-121838012D01*
X136776491Y-121838015D01*
X136878985Y-121940509D01*
X136878987Y-121940510D01*
X136878989Y-121940512D01*
X137004511Y-122012982D01*
X137004512Y-122012982D01*
X137004515Y-122012984D01*
X137144525Y-122050500D01*
X137144526Y-122050500D01*
X137289474Y-122050500D01*
X137289475Y-122050500D01*
X137429485Y-122012984D01*
X137429487Y-122012982D01*
X137429489Y-122012982D01*
X137555010Y-121940512D01*
X137555010Y-121940511D01*
X137555015Y-121940509D01*
X137657509Y-121838015D01*
X137657512Y-121838010D01*
X137729982Y-121712489D01*
X137729982Y-121712487D01*
X137729984Y-121712485D01*
X137767500Y-121572475D01*
X137767500Y-121427525D01*
X137729984Y-121287515D01*
X137729982Y-121287512D01*
X137729982Y-121287510D01*
X137657512Y-121161989D01*
X137657510Y-121161987D01*
X137657509Y-121161985D01*
X137555015Y-121059491D01*
X137555012Y-121059489D01*
X137555010Y-121059487D01*
X137429488Y-120987017D01*
X137429489Y-120987017D01*
X137399896Y-120979087D01*
X137289475Y-120949500D01*
X137144525Y-120949500D01*
X137082790Y-120966041D01*
X137004510Y-120987017D01*
X136878989Y-121059487D01*
X136776487Y-121161989D01*
X136704017Y-121287510D01*
X136683361Y-121364600D01*
X136666500Y-121427525D01*
X127173366Y-121427525D01*
X127197810Y-121413412D01*
X127197810Y-121413411D01*
X127197815Y-121413409D01*
X127300309Y-121310915D01*
X127332816Y-121254612D01*
X127370640Y-121189100D01*
X127416109Y-121148159D01*
X127456376Y-121139600D01*
X128595469Y-121139600D01*
X128653660Y-121158507D01*
X128665466Y-121168590D01*
X128751485Y-121254609D01*
X128751487Y-121254610D01*
X128751489Y-121254612D01*
X128877011Y-121327082D01*
X128877012Y-121327082D01*
X128877015Y-121327084D01*
X129017025Y-121364600D01*
X129017026Y-121364600D01*
X129161973Y-121364600D01*
X129161975Y-121364600D01*
X129301985Y-121327084D01*
X129427515Y-121254609D01*
X129530009Y-121152115D01*
X129602484Y-121026585D01*
X129640000Y-120886575D01*
X129640000Y-120741625D01*
X129602484Y-120601615D01*
X129602482Y-120601612D01*
X129602482Y-120601610D01*
X129530012Y-120476089D01*
X129530008Y-120476084D01*
X129466127Y-120412202D01*
X129459795Y-120399775D01*
X129449586Y-120390272D01*
X129446249Y-120373189D01*
X129438350Y-120357685D01*
X129440531Y-120343911D01*
X129437858Y-120330221D01*
X129445032Y-120315494D01*
X129447922Y-120297253D01*
X129456686Y-120284725D01*
X133949500Y-120284725D01*
X133949500Y-120429675D01*
X133961936Y-120476085D01*
X133987017Y-120569689D01*
X134059487Y-120695210D01*
X134059489Y-120695212D01*
X134059491Y-120695215D01*
X134161985Y-120797709D01*
X134161987Y-120797710D01*
X134161989Y-120797712D01*
X134287511Y-120870182D01*
X134287512Y-120870182D01*
X134287515Y-120870184D01*
X134427525Y-120907700D01*
X134427526Y-120907700D01*
X134572474Y-120907700D01*
X134572475Y-120907700D01*
X134712485Y-120870184D01*
X134712487Y-120870182D01*
X134712489Y-120870182D01*
X134838010Y-120797712D01*
X134838010Y-120797711D01*
X134838015Y-120797709D01*
X134940509Y-120695215D01*
X135012984Y-120569685D01*
X135012985Y-120569679D01*
X135015466Y-120563693D01*
X135017819Y-120564667D01*
X135045173Y-120522508D01*
X135102285Y-120500557D01*
X135157008Y-120513683D01*
X135267511Y-120577482D01*
X135267512Y-120577482D01*
X135267515Y-120577484D01*
X135407525Y-120615000D01*
X135407526Y-120615000D01*
X135552474Y-120615000D01*
X135552475Y-120615000D01*
X135692485Y-120577484D01*
X135692487Y-120577482D01*
X135692489Y-120577482D01*
X135818010Y-120505012D01*
X135818010Y-120505011D01*
X135818015Y-120505009D01*
X135920509Y-120402515D01*
X135937208Y-120373591D01*
X135992982Y-120276989D01*
X135992982Y-120276987D01*
X135992984Y-120276985D01*
X136026441Y-120152125D01*
X137867000Y-120152125D01*
X137867000Y-120297075D01*
X137875882Y-120330221D01*
X137904517Y-120437089D01*
X137976987Y-120562610D01*
X137976989Y-120562612D01*
X137976991Y-120562615D01*
X138079485Y-120665109D01*
X138079487Y-120665110D01*
X138079489Y-120665112D01*
X138205011Y-120737582D01*
X138205012Y-120737582D01*
X138205015Y-120737584D01*
X138345025Y-120775100D01*
X138345026Y-120775100D01*
X138489974Y-120775100D01*
X138489975Y-120775100D01*
X138629985Y-120737584D01*
X138629987Y-120737582D01*
X138629989Y-120737582D01*
X138755510Y-120665112D01*
X138755510Y-120665111D01*
X138755515Y-120665109D01*
X138858009Y-120562615D01*
X138891268Y-120505009D01*
X138930482Y-120437089D01*
X138930482Y-120437087D01*
X138930484Y-120437085D01*
X138968000Y-120297075D01*
X138968000Y-120152125D01*
X138930484Y-120012115D01*
X138930482Y-120012112D01*
X138930482Y-120012110D01*
X138858012Y-119886589D01*
X138858010Y-119886587D01*
X138858009Y-119886585D01*
X138755515Y-119784091D01*
X138755512Y-119784089D01*
X138755510Y-119784087D01*
X138629988Y-119711617D01*
X138629989Y-119711617D01*
X138600396Y-119703687D01*
X138489975Y-119674100D01*
X138345025Y-119674100D01*
X138283290Y-119690641D01*
X138205010Y-119711617D01*
X138079489Y-119784087D01*
X137976987Y-119886589D01*
X137904517Y-120012110D01*
X137871164Y-120136585D01*
X137867000Y-120152125D01*
X136026441Y-120152125D01*
X136030500Y-120136975D01*
X136030500Y-119992025D01*
X135992984Y-119852015D01*
X135992982Y-119852011D01*
X135992982Y-119852010D01*
X135920512Y-119726489D01*
X135920510Y-119726487D01*
X135920509Y-119726485D01*
X135818015Y-119623991D01*
X135818012Y-119623989D01*
X135818010Y-119623987D01*
X135692488Y-119551517D01*
X135692489Y-119551517D01*
X135662896Y-119543587D01*
X135552475Y-119514000D01*
X135407525Y-119514000D01*
X135345790Y-119530541D01*
X135267510Y-119551517D01*
X135141989Y-119623987D01*
X135039487Y-119726489D01*
X134967017Y-119852011D01*
X134964534Y-119858007D01*
X134962189Y-119857036D01*
X134934784Y-119899226D01*
X134877659Y-119921145D01*
X134822991Y-119908016D01*
X134712488Y-119844217D01*
X134712489Y-119844217D01*
X134682896Y-119836287D01*
X134572475Y-119806700D01*
X134427525Y-119806700D01*
X134375374Y-119820674D01*
X134287510Y-119844217D01*
X134161989Y-119916687D01*
X134059487Y-120019189D01*
X133987017Y-120144710D01*
X133966947Y-120219613D01*
X133949500Y-120284725D01*
X129456686Y-120284725D01*
X129463667Y-120274745D01*
X129464851Y-120273472D01*
X129510409Y-120227915D01*
X129558448Y-120144710D01*
X129582882Y-120102389D01*
X129582882Y-120102387D01*
X129582884Y-120102385D01*
X129620400Y-119962375D01*
X129620400Y-119817425D01*
X129582884Y-119677415D01*
X129582882Y-119677412D01*
X129582882Y-119677410D01*
X129510412Y-119551889D01*
X129510410Y-119551887D01*
X129510409Y-119551885D01*
X129407915Y-119449391D01*
X129407912Y-119449389D01*
X129407910Y-119449387D01*
X129282388Y-119376917D01*
X129282389Y-119376917D01*
X129252796Y-119368987D01*
X129142375Y-119339400D01*
X128997425Y-119339400D01*
X128935690Y-119355941D01*
X128857410Y-119376917D01*
X128731889Y-119449387D01*
X128629387Y-119551889D01*
X128559550Y-119672851D01*
X128514081Y-119713792D01*
X128453230Y-119720188D01*
X128448215Y-119718984D01*
X128391175Y-119703700D01*
X128246225Y-119703700D01*
X128216679Y-119711617D01*
X128106210Y-119741217D01*
X127980689Y-119813687D01*
X127878187Y-119916189D01*
X127805717Y-120041710D01*
X127768200Y-120181725D01*
X127768200Y-120326674D01*
X127778195Y-120363977D01*
X127774992Y-120425079D01*
X127736487Y-120472629D01*
X127682568Y-120488600D01*
X127633435Y-120488600D01*
X127575244Y-120469693D01*
X127563431Y-120459604D01*
X127147096Y-120043269D01*
X127119319Y-119988752D01*
X127118100Y-119973265D01*
X127118100Y-119851625D01*
X127109807Y-119820675D01*
X127080584Y-119711615D01*
X127080582Y-119711612D01*
X127080582Y-119711610D01*
X127008112Y-119586089D01*
X127008110Y-119586087D01*
X127008109Y-119586085D01*
X126905615Y-119483591D01*
X126905612Y-119483589D01*
X126905610Y-119483587D01*
X126780088Y-119411117D01*
X126780089Y-119411117D01*
X126715103Y-119393704D01*
X126640075Y-119373600D01*
X126495125Y-119373600D01*
X126433390Y-119390141D01*
X126355110Y-119411117D01*
X126229589Y-119483587D01*
X126127087Y-119586089D01*
X126054617Y-119711610D01*
X126026264Y-119817425D01*
X126017100Y-119851625D01*
X124237577Y-119851625D01*
X126186818Y-117902383D01*
X126231195Y-117876762D01*
X126326285Y-117851284D01*
X126326287Y-117851282D01*
X126326289Y-117851282D01*
X126451810Y-117778812D01*
X126451810Y-117778811D01*
X126451815Y-117778809D01*
X126554309Y-117676315D01*
X126608713Y-117582085D01*
X126626782Y-117550789D01*
X126626782Y-117550787D01*
X126626784Y-117550785D01*
X126641180Y-117497056D01*
X126674503Y-117445745D01*
X126731624Y-117423818D01*
X126790725Y-117439653D01*
X126829230Y-117487203D01*
X126832432Y-117497058D01*
X126855215Y-117582084D01*
X126855217Y-117582088D01*
X126927687Y-117707610D01*
X126927689Y-117707612D01*
X126927691Y-117707615D01*
X127030185Y-117810109D01*
X127030187Y-117810110D01*
X127030189Y-117810112D01*
X127155711Y-117882582D01*
X127155712Y-117882582D01*
X127155715Y-117882584D01*
X127295725Y-117920100D01*
X127295726Y-117920100D01*
X127440674Y-117920100D01*
X127440675Y-117920100D01*
X127580685Y-117882584D01*
X127580687Y-117882582D01*
X127580689Y-117882582D01*
X127706210Y-117810112D01*
X127706210Y-117810111D01*
X127706215Y-117810109D01*
X127808709Y-117707615D01*
X127826783Y-117676310D01*
X127881182Y-117582089D01*
X127881182Y-117582087D01*
X127881184Y-117582085D01*
X127918700Y-117442075D01*
X127918700Y-117297125D01*
X127881184Y-117157115D01*
X127881182Y-117157111D01*
X127881182Y-117157110D01*
X127808712Y-117031589D01*
X127808710Y-117031587D01*
X127808709Y-117031585D01*
X127706215Y-116929091D01*
X127706212Y-116929089D01*
X127706210Y-116929087D01*
X127575979Y-116853898D01*
X127535038Y-116808429D01*
X127528642Y-116747578D01*
X127559235Y-116694590D01*
X127575974Y-116682427D01*
X127638015Y-116646609D01*
X127740509Y-116544115D01*
X127750789Y-116526310D01*
X127812982Y-116418589D01*
X127812982Y-116418587D01*
X127812984Y-116418585D01*
X127850500Y-116278575D01*
X127850500Y-116133625D01*
X127812984Y-115993615D01*
X127812982Y-115993612D01*
X127812982Y-115993610D01*
X127740512Y-115868089D01*
X127740510Y-115868087D01*
X127740509Y-115868085D01*
X127638015Y-115765591D01*
X127638012Y-115765589D01*
X127638010Y-115765587D01*
X127512488Y-115693117D01*
X127512489Y-115693117D01*
X127482896Y-115685187D01*
X127372475Y-115655600D01*
X127227525Y-115655600D01*
X127165790Y-115672141D01*
X127087510Y-115693117D01*
X126961989Y-115765587D01*
X126859487Y-115868089D01*
X126787017Y-115993610D01*
X126759635Y-116095800D01*
X126749500Y-116133625D01*
X126749500Y-116278575D01*
X126754782Y-116298287D01*
X126787017Y-116418589D01*
X126859487Y-116544110D01*
X126859489Y-116544112D01*
X126859491Y-116544115D01*
X126961985Y-116646609D01*
X126961987Y-116646610D01*
X126961989Y-116646612D01*
X127092220Y-116721801D01*
X127133161Y-116767270D01*
X127139557Y-116828120D01*
X127108964Y-116881108D01*
X127092221Y-116893273D01*
X127030187Y-116929089D01*
X126927687Y-117031589D01*
X126855217Y-117157111D01*
X126855215Y-117157115D01*
X126840819Y-117210841D01*
X126807495Y-117262155D01*
X126750373Y-117284081D01*
X126691273Y-117268245D01*
X126652768Y-117220694D01*
X126649569Y-117210851D01*
X126626784Y-117125815D01*
X126626782Y-117125811D01*
X126626782Y-117125810D01*
X126554312Y-117000289D01*
X126554310Y-117000287D01*
X126554309Y-117000285D01*
X126451815Y-116897791D01*
X126451812Y-116897789D01*
X126451810Y-116897787D01*
X126326288Y-116825317D01*
X126326289Y-116825317D01*
X126273880Y-116811274D01*
X126186275Y-116787800D01*
X126041325Y-116787800D01*
X125983479Y-116803300D01*
X125901310Y-116825317D01*
X125775789Y-116897787D01*
X125673287Y-117000289D01*
X125600817Y-117125811D01*
X125600815Y-117125815D01*
X125575337Y-117220900D01*
X125549715Y-117265280D01*
X121894793Y-120920204D01*
X121840276Y-120947981D01*
X121824789Y-120949200D01*
X114720634Y-120949200D01*
X114662443Y-120930293D01*
X114626479Y-120880793D01*
X114626479Y-120819607D01*
X114650628Y-120780198D01*
X118878702Y-116552125D01*
X121525400Y-116552125D01*
X121525400Y-116697075D01*
X121543069Y-116763015D01*
X121562917Y-116837089D01*
X121635387Y-116962610D01*
X121635389Y-116962612D01*
X121635391Y-116962615D01*
X121737885Y-117065109D01*
X121737887Y-117065110D01*
X121737889Y-117065112D01*
X121863411Y-117137582D01*
X121863412Y-117137582D01*
X121863415Y-117137584D01*
X122003425Y-117175100D01*
X122003426Y-117175100D01*
X122148374Y-117175100D01*
X122148375Y-117175100D01*
X122288385Y-117137584D01*
X122288387Y-117137582D01*
X122288389Y-117137582D01*
X122413910Y-117065112D01*
X122413910Y-117065111D01*
X122413915Y-117065109D01*
X122516409Y-116962615D01*
X122519961Y-116956463D01*
X122592129Y-116831466D01*
X122594242Y-116832686D01*
X122627098Y-116794197D01*
X122686589Y-116779899D01*
X122743123Y-116803300D01*
X122774472Y-116852972D01*
X122800815Y-116951284D01*
X122800817Y-116951288D01*
X122873287Y-117076810D01*
X122873289Y-117076812D01*
X122873291Y-117076815D01*
X122975785Y-117179309D01*
X122975787Y-117179310D01*
X122975789Y-117179312D01*
X123101311Y-117251782D01*
X123101312Y-117251782D01*
X123101315Y-117251784D01*
X123241325Y-117289300D01*
X123241326Y-117289300D01*
X123386274Y-117289300D01*
X123386275Y-117289300D01*
X123526285Y-117251784D01*
X123526287Y-117251782D01*
X123526289Y-117251782D01*
X123651810Y-117179312D01*
X123651810Y-117179311D01*
X123651815Y-117179309D01*
X123754309Y-117076815D01*
X123761066Y-117065112D01*
X123826782Y-116951289D01*
X123826782Y-116951287D01*
X123826784Y-116951285D01*
X123864300Y-116811275D01*
X123864300Y-116666325D01*
X123826784Y-116526315D01*
X123826782Y-116526312D01*
X123826782Y-116526310D01*
X123754312Y-116400789D01*
X123754310Y-116400787D01*
X123754309Y-116400785D01*
X123651815Y-116298291D01*
X123651812Y-116298289D01*
X123651810Y-116298287D01*
X123526288Y-116225817D01*
X123526289Y-116225817D01*
X123478616Y-116213043D01*
X123386275Y-116188300D01*
X123241325Y-116188300D01*
X123179590Y-116204841D01*
X123101310Y-116225817D01*
X122975789Y-116298287D01*
X122873287Y-116400789D01*
X122797571Y-116531934D01*
X122795465Y-116530718D01*
X122762558Y-116569228D01*
X122703060Y-116583496D01*
X122646538Y-116560066D01*
X122615227Y-116510427D01*
X122588884Y-116412115D01*
X122588882Y-116412112D01*
X122588882Y-116412110D01*
X122516412Y-116286589D01*
X122516410Y-116286587D01*
X122516409Y-116286585D01*
X122413915Y-116184091D01*
X122413912Y-116184089D01*
X122413910Y-116184087D01*
X122288388Y-116111617D01*
X122288389Y-116111617D01*
X122258796Y-116103687D01*
X122148375Y-116074100D01*
X122003425Y-116074100D01*
X121941690Y-116090641D01*
X121863410Y-116111617D01*
X121737889Y-116184087D01*
X121635387Y-116286589D01*
X121562917Y-116412110D01*
X121545896Y-116475632D01*
X121525400Y-116552125D01*
X118878702Y-116552125D01*
X120099360Y-115331467D01*
X131564200Y-115331467D01*
X131564200Y-115468532D01*
X131590939Y-115602956D01*
X131590939Y-115602958D01*
X131643387Y-115729580D01*
X131643393Y-115729591D01*
X131669402Y-115768515D01*
X131719537Y-115843547D01*
X131816453Y-115940463D01*
X131877121Y-115981000D01*
X131930408Y-116016606D01*
X131930419Y-116016612D01*
X131977193Y-116035986D01*
X132057043Y-116069061D01*
X132191470Y-116095800D01*
X132191471Y-116095800D01*
X132328529Y-116095800D01*
X132328530Y-116095800D01*
X132462957Y-116069061D01*
X132589585Y-116016610D01*
X132703547Y-115940463D01*
X132800463Y-115843547D01*
X132876610Y-115729585D01*
X132929061Y-115602957D01*
X132955800Y-115468530D01*
X132955800Y-115358025D01*
X136124000Y-115358025D01*
X136124000Y-115502974D01*
X136161517Y-115642989D01*
X136233987Y-115768510D01*
X136233989Y-115768512D01*
X136233991Y-115768515D01*
X136336485Y-115871009D01*
X136336487Y-115871010D01*
X136336489Y-115871012D01*
X136462011Y-115943482D01*
X136462012Y-115943482D01*
X136462015Y-115943484D01*
X136602025Y-115981000D01*
X136602026Y-115981000D01*
X136618890Y-115981000D01*
X136677081Y-115999907D01*
X136713045Y-116049407D01*
X136713045Y-116110593D01*
X136710354Y-116117885D01*
X136670939Y-116213041D01*
X136670939Y-116213043D01*
X136644200Y-116347467D01*
X136644200Y-116484532D01*
X136670939Y-116618956D01*
X136670939Y-116618958D01*
X136723387Y-116745580D01*
X136723393Y-116745591D01*
X136761954Y-116803300D01*
X136799537Y-116859547D01*
X136896453Y-116956463D01*
X136962037Y-117000285D01*
X137010408Y-117032606D01*
X137010419Y-117032612D01*
X137047507Y-117047974D01*
X137137043Y-117085061D01*
X137271470Y-117111800D01*
X137271471Y-117111800D01*
X137408529Y-117111800D01*
X137408530Y-117111800D01*
X137542957Y-117085061D01*
X137669585Y-117032610D01*
X137783547Y-116956463D01*
X137836985Y-116903025D01*
X139374100Y-116903025D01*
X139374100Y-117047975D01*
X139381828Y-117076815D01*
X139411617Y-117187989D01*
X139484087Y-117313510D01*
X139484089Y-117313512D01*
X139484091Y-117313515D01*
X139586585Y-117416009D01*
X139586587Y-117416010D01*
X139586589Y-117416012D01*
X139712111Y-117488482D01*
X139712112Y-117488482D01*
X139712115Y-117488484D01*
X139852125Y-117526000D01*
X139852126Y-117526000D01*
X139997074Y-117526000D01*
X139997075Y-117526000D01*
X140137085Y-117488484D01*
X140137087Y-117488482D01*
X140137089Y-117488482D01*
X140262610Y-117416012D01*
X140262610Y-117416011D01*
X140262615Y-117416009D01*
X140365109Y-117313515D01*
X140394338Y-117262889D01*
X140437582Y-117187989D01*
X140437582Y-117187987D01*
X140437584Y-117187985D01*
X140475100Y-117047975D01*
X140475100Y-116903025D01*
X140437584Y-116763015D01*
X140437582Y-116763012D01*
X140437582Y-116763010D01*
X140365112Y-116637489D01*
X140365110Y-116637487D01*
X140365109Y-116637485D01*
X140262615Y-116534991D01*
X140262612Y-116534989D01*
X140262610Y-116534987D01*
X140137088Y-116462517D01*
X140137089Y-116462517D01*
X140107496Y-116454587D01*
X139997075Y-116425000D01*
X139852125Y-116425000D01*
X139790390Y-116441541D01*
X139712110Y-116462517D01*
X139586589Y-116534987D01*
X139484087Y-116637489D01*
X139411617Y-116763010D01*
X139396588Y-116819100D01*
X139374100Y-116903025D01*
X137836985Y-116903025D01*
X137880463Y-116859547D01*
X137894917Y-116837915D01*
X137956606Y-116745592D01*
X137956612Y-116745580D01*
X138009061Y-116618957D01*
X138035800Y-116484530D01*
X138035800Y-116347470D01*
X138009061Y-116213043D01*
X137976165Y-116133625D01*
X137956612Y-116086419D01*
X137956606Y-116086408D01*
X137909969Y-116016612D01*
X137880463Y-115972453D01*
X137783547Y-115875537D01*
X137735669Y-115843546D01*
X137669591Y-115799393D01*
X137669580Y-115799387D01*
X137542957Y-115746939D01*
X137408532Y-115720200D01*
X137408530Y-115720200D01*
X137295814Y-115720200D01*
X137237623Y-115701293D01*
X137201659Y-115651793D01*
X137200187Y-115595577D01*
X137225000Y-115502974D01*
X137225000Y-115358025D01*
X137219558Y-115337715D01*
X137187484Y-115218015D01*
X137187482Y-115218012D01*
X137187481Y-115218007D01*
X137186931Y-115216678D01*
X137186850Y-115215651D01*
X137185804Y-115211747D01*
X137186528Y-115211552D01*
X137182135Y-115155681D01*
X137214109Y-115103515D01*
X137270639Y-115080105D01*
X137278398Y-115079800D01*
X137408529Y-115079800D01*
X137408530Y-115079800D01*
X137542957Y-115053061D01*
X137669585Y-115000610D01*
X137783547Y-114924463D01*
X137880463Y-114827547D01*
X137956610Y-114713585D01*
X138009061Y-114586957D01*
X138035800Y-114452530D01*
X138035800Y-114315470D01*
X138009061Y-114181043D01*
X137956610Y-114054415D01*
X137956607Y-114054409D01*
X137952349Y-114048037D01*
X137952348Y-114048036D01*
X137919934Y-113999525D01*
X139375300Y-113999525D01*
X139375300Y-114144475D01*
X139397058Y-114225675D01*
X139412817Y-114284489D01*
X139485287Y-114410010D01*
X139485289Y-114410012D01*
X139485291Y-114410015D01*
X139587785Y-114512509D01*
X139587787Y-114512510D01*
X139587789Y-114512512D01*
X139713311Y-114584982D01*
X139713312Y-114584982D01*
X139713315Y-114584984D01*
X139853325Y-114622500D01*
X139853326Y-114622500D01*
X139998274Y-114622500D01*
X139998275Y-114622500D01*
X140138285Y-114584984D01*
X140138287Y-114584982D01*
X140138289Y-114584982D01*
X140263810Y-114512512D01*
X140263810Y-114512511D01*
X140263815Y-114512509D01*
X140366309Y-114410015D01*
X140416663Y-114322800D01*
X140438782Y-114284489D01*
X140438782Y-114284487D01*
X140438784Y-114284485D01*
X140476300Y-114144475D01*
X140476300Y-113999525D01*
X140438784Y-113859515D01*
X140438782Y-113859512D01*
X140438782Y-113859510D01*
X140366312Y-113733989D01*
X140366310Y-113733987D01*
X140366309Y-113733985D01*
X140263815Y-113631491D01*
X140263812Y-113631489D01*
X140263810Y-113631487D01*
X140138288Y-113559017D01*
X140138289Y-113559017D01*
X140108696Y-113551087D01*
X139998275Y-113521500D01*
X139853325Y-113521500D01*
X139791590Y-113538041D01*
X139713310Y-113559017D01*
X139587789Y-113631487D01*
X139485287Y-113733989D01*
X139412817Y-113859510D01*
X139379540Y-113983700D01*
X139375300Y-113999525D01*
X137919934Y-113999525D01*
X137880463Y-113940453D01*
X137783550Y-113843540D01*
X137783547Y-113843537D01*
X137718207Y-113799878D01*
X137669591Y-113767393D01*
X137669580Y-113767387D01*
X137542957Y-113714939D01*
X137408532Y-113688200D01*
X137408530Y-113688200D01*
X137271470Y-113688200D01*
X137271467Y-113688200D01*
X137137043Y-113714939D01*
X137137041Y-113714939D01*
X137010419Y-113767387D01*
X137010408Y-113767393D01*
X136896453Y-113843537D01*
X136896449Y-113843540D01*
X136799540Y-113940449D01*
X136799537Y-113940453D01*
X136723393Y-114054408D01*
X136723387Y-114054419D01*
X136670939Y-114181041D01*
X136670939Y-114181043D01*
X136644200Y-114315467D01*
X136644200Y-114452532D01*
X136670939Y-114586956D01*
X136670939Y-114586958D01*
X136723387Y-114713580D01*
X136723392Y-114713590D01*
X136731684Y-114725999D01*
X136748292Y-114784888D01*
X136727114Y-114842291D01*
X136676240Y-114876283D01*
X136649368Y-114880000D01*
X136602025Y-114880000D01*
X136540290Y-114896541D01*
X136462010Y-114917517D01*
X136336489Y-114989987D01*
X136233987Y-115092489D01*
X136161517Y-115218010D01*
X136124000Y-115358025D01*
X132955800Y-115358025D01*
X132955800Y-115331470D01*
X132929061Y-115197043D01*
X132911577Y-115154833D01*
X132876612Y-115070419D01*
X132876606Y-115070408D01*
X132845860Y-115024394D01*
X132800463Y-114956453D01*
X132703547Y-114859537D01*
X132655669Y-114827546D01*
X132589591Y-114783393D01*
X132589580Y-114783387D01*
X132462957Y-114730939D01*
X132328532Y-114704200D01*
X132328530Y-114704200D01*
X132191470Y-114704200D01*
X132191467Y-114704200D01*
X132057043Y-114730939D01*
X132057041Y-114730939D01*
X131930419Y-114783387D01*
X131930408Y-114783393D01*
X131816453Y-114859537D01*
X131816449Y-114859540D01*
X131719540Y-114956449D01*
X131719537Y-114956453D01*
X131643393Y-115070408D01*
X131643387Y-115070419D01*
X131590939Y-115197041D01*
X131590939Y-115197043D01*
X131564200Y-115331467D01*
X120099360Y-115331467D01*
X120826331Y-114604496D01*
X120880848Y-114576719D01*
X120896335Y-114575500D01*
X125593469Y-114575500D01*
X125651660Y-114594407D01*
X125663466Y-114604490D01*
X125749485Y-114690509D01*
X125749487Y-114690510D01*
X125749489Y-114690512D01*
X125875011Y-114762982D01*
X125875012Y-114762982D01*
X125875015Y-114762984D01*
X126015025Y-114800500D01*
X126015026Y-114800500D01*
X126159974Y-114800500D01*
X126159975Y-114800500D01*
X126299985Y-114762984D01*
X126299987Y-114762982D01*
X126299989Y-114762982D01*
X126425510Y-114690512D01*
X126425510Y-114690511D01*
X126425515Y-114690509D01*
X126528009Y-114588015D01*
X126528620Y-114586957D01*
X126600482Y-114462489D01*
X126600482Y-114462487D01*
X126600484Y-114462485D01*
X126638000Y-114322475D01*
X126638000Y-114177525D01*
X126600484Y-114037515D01*
X126600482Y-114037512D01*
X126600482Y-114037510D01*
X126528012Y-113911989D01*
X126528010Y-113911987D01*
X126528009Y-113911985D01*
X126425515Y-113809491D01*
X126425512Y-113809489D01*
X126425510Y-113809487D01*
X126299988Y-113737017D01*
X126299989Y-113737017D01*
X126217593Y-113714939D01*
X126159975Y-113699500D01*
X126015025Y-113699500D01*
X125965811Y-113712687D01*
X125875010Y-113737017D01*
X125749489Y-113809487D01*
X125749488Y-113809488D01*
X125749485Y-113809490D01*
X125749485Y-113809491D01*
X125663470Y-113895505D01*
X125608956Y-113923281D01*
X125593469Y-113924500D01*
X124606022Y-113924500D01*
X124547831Y-113905593D01*
X124511867Y-113856093D01*
X124510395Y-113799878D01*
X124512700Y-113791275D01*
X124512700Y-113646325D01*
X124508724Y-113631487D01*
X124475184Y-113506315D01*
X124475182Y-113506312D01*
X124475182Y-113506310D01*
X124402712Y-113380789D01*
X124402710Y-113380787D01*
X124402709Y-113380785D01*
X124300215Y-113278291D01*
X124300212Y-113278289D01*
X124300210Y-113278287D01*
X124174688Y-113205817D01*
X124174689Y-113205817D01*
X124145096Y-113197887D01*
X124034675Y-113168300D01*
X123889725Y-113168300D01*
X123827990Y-113184841D01*
X123749710Y-113205817D01*
X123624189Y-113278287D01*
X123521687Y-113380789D01*
X123449217Y-113506310D01*
X123411700Y-113646325D01*
X123411700Y-113791275D01*
X123411699Y-113791275D01*
X123414005Y-113799878D01*
X123410802Y-113860979D01*
X123372297Y-113908529D01*
X123318378Y-113924500D01*
X120763353Y-113924500D01*
X120677647Y-113924500D01*
X120626978Y-113938076D01*
X120594856Y-113946683D01*
X120520642Y-113989531D01*
X114205069Y-120305104D01*
X114150552Y-120332881D01*
X114135065Y-120334100D01*
X114090431Y-120334100D01*
X114032240Y-120315193D01*
X113996276Y-120265693D01*
X113996276Y-120204507D01*
X114020425Y-120165098D01*
X114099309Y-120086215D01*
X114151063Y-119996575D01*
X114171782Y-119960689D01*
X114171782Y-119960687D01*
X114171784Y-119960685D01*
X114209300Y-119820675D01*
X114209300Y-119675725D01*
X114171784Y-119535715D01*
X114171782Y-119535712D01*
X114171782Y-119535710D01*
X114099312Y-119410189D01*
X114099310Y-119410187D01*
X114099309Y-119410185D01*
X113996815Y-119307691D01*
X113996812Y-119307689D01*
X113996810Y-119307687D01*
X113871288Y-119235217D01*
X113871289Y-119235217D01*
X113841696Y-119227287D01*
X113731275Y-119197700D01*
X113586325Y-119197700D01*
X113524590Y-119214241D01*
X113446310Y-119235217D01*
X113320789Y-119307687D01*
X113320788Y-119307688D01*
X113320785Y-119307690D01*
X113320785Y-119307691D01*
X113234770Y-119393705D01*
X113180256Y-119421481D01*
X113164769Y-119422700D01*
X110448153Y-119422700D01*
X110362447Y-119422700D01*
X110311778Y-119436276D01*
X110279656Y-119444883D01*
X110205442Y-119487731D01*
X110205441Y-119487732D01*
X106587868Y-123105304D01*
X106533351Y-123133081D01*
X106517864Y-123134300D01*
X106396225Y-123134300D01*
X106334490Y-123150841D01*
X106256210Y-123171817D01*
X106130689Y-123244287D01*
X106028187Y-123346789D01*
X105955717Y-123472310D01*
X105921940Y-123598367D01*
X105918200Y-123612325D01*
X105630545Y-123612325D01*
X105599688Y-123497164D01*
X105530505Y-123377335D01*
X105432665Y-123279495D01*
X105312836Y-123210312D01*
X105179183Y-123174500D01*
X105040817Y-123174500D01*
X104907164Y-123210312D01*
X104787335Y-123279495D01*
X104689495Y-123377335D01*
X104620312Y-123497164D01*
X104620311Y-123497166D01*
X104617068Y-123502784D01*
X104615562Y-123501915D01*
X104581224Y-123542117D01*
X104521729Y-123556399D01*
X104465202Y-123532982D01*
X104433235Y-123480812D01*
X104430500Y-123457704D01*
X104430500Y-122546083D01*
X104430500Y-122546082D01*
X104401658Y-122401087D01*
X104345084Y-122264505D01*
X104262951Y-122141584D01*
X104158416Y-122037049D01*
X104035495Y-121954916D01*
X104035493Y-121954915D01*
X103898914Y-121898342D01*
X103753918Y-121869500D01*
X103606082Y-121869500D01*
X103606081Y-121869500D01*
X103461085Y-121898342D01*
X103324506Y-121954915D01*
X103201585Y-122037048D01*
X103097048Y-122141585D01*
X103014915Y-122264506D01*
X102958342Y-122401085D01*
X102929500Y-122546081D01*
X100400000Y-122546081D01*
X100400000Y-118983672D01*
X100418907Y-118925481D01*
X100468407Y-118889517D01*
X100529593Y-118889517D01*
X100548501Y-118897936D01*
X100550183Y-118898907D01*
X100550185Y-118898909D01*
X100675715Y-118971384D01*
X100815725Y-119008900D01*
X100815726Y-119008900D01*
X100960674Y-119008900D01*
X100960675Y-119008900D01*
X101100685Y-118971384D01*
X101100687Y-118971382D01*
X101100689Y-118971382D01*
X101226210Y-118898912D01*
X101226210Y-118898911D01*
X101226215Y-118898909D01*
X101328709Y-118796415D01*
X101401184Y-118670885D01*
X101438700Y-118530875D01*
X101438700Y-118385925D01*
X101401184Y-118245915D01*
X101401182Y-118245912D01*
X101401182Y-118245910D01*
X101328712Y-118120389D01*
X101328710Y-118120387D01*
X101328709Y-118120385D01*
X101226215Y-118017891D01*
X101226212Y-118017889D01*
X101226210Y-118017887D01*
X101100688Y-117945417D01*
X101100689Y-117945417D01*
X101006205Y-117920100D01*
X100960675Y-117907900D01*
X100815725Y-117907900D01*
X100770195Y-117920100D01*
X100675710Y-117945417D01*
X100548500Y-118018863D01*
X100538153Y-118021062D01*
X100529593Y-118027282D01*
X100508895Y-118027282D01*
X100488652Y-118031585D01*
X100478987Y-118027282D01*
X100468407Y-118027282D01*
X100451660Y-118015115D01*
X100432756Y-118006698D01*
X100427466Y-117997537D01*
X100418907Y-117991318D01*
X100412511Y-117971633D01*
X100402163Y-117953710D01*
X100400000Y-117933127D01*
X100400000Y-117755225D01*
X108459500Y-117755225D01*
X108459500Y-117900175D01*
X108471623Y-117945417D01*
X108497017Y-118040189D01*
X108569487Y-118165710D01*
X108569489Y-118165712D01*
X108569491Y-118165715D01*
X108671985Y-118268209D01*
X108671987Y-118268210D01*
X108671989Y-118268212D01*
X108797511Y-118340682D01*
X108797512Y-118340682D01*
X108797515Y-118340684D01*
X108937525Y-118378200D01*
X108937526Y-118378200D01*
X109082474Y-118378200D01*
X109082475Y-118378200D01*
X109222485Y-118340684D01*
X109222487Y-118340682D01*
X109222489Y-118340682D01*
X109348010Y-118268212D01*
X109348010Y-118268211D01*
X109348015Y-118268209D01*
X109450509Y-118165715D01*
X109476678Y-118120389D01*
X109522982Y-118040189D01*
X109522982Y-118040187D01*
X109522984Y-118040185D01*
X109560500Y-117900175D01*
X109560500Y-117755225D01*
X109522984Y-117615215D01*
X109522982Y-117615212D01*
X109522982Y-117615210D01*
X109450512Y-117489689D01*
X109450510Y-117489687D01*
X109450509Y-117489685D01*
X109348015Y-117387191D01*
X109348012Y-117387189D01*
X109348010Y-117387187D01*
X109222488Y-117314717D01*
X109222489Y-117314717D01*
X109127632Y-117289300D01*
X109082475Y-117277200D01*
X108937525Y-117277200D01*
X108892368Y-117289300D01*
X108797510Y-117314717D01*
X108671989Y-117387187D01*
X108569487Y-117489689D01*
X108497017Y-117615210D01*
X108472257Y-117707615D01*
X108459500Y-117755225D01*
X100400000Y-117755225D01*
X100400000Y-116977925D01*
X112668600Y-116977925D01*
X112668600Y-117122875D01*
X112692170Y-117210840D01*
X112706117Y-117262889D01*
X112778587Y-117388410D01*
X112778589Y-117388412D01*
X112778591Y-117388415D01*
X112881085Y-117490909D01*
X112881087Y-117490910D01*
X112881089Y-117490912D01*
X113006611Y-117563382D01*
X113006612Y-117563382D01*
X113006615Y-117563384D01*
X113146625Y-117600900D01*
X113146626Y-117600900D01*
X113291574Y-117600900D01*
X113291575Y-117600900D01*
X113365002Y-117581225D01*
X115063400Y-117581225D01*
X115063400Y-117726175D01*
X115077504Y-117778812D01*
X115100917Y-117866189D01*
X115173387Y-117991710D01*
X115173389Y-117991712D01*
X115173391Y-117991715D01*
X115275885Y-118094209D01*
X115275887Y-118094210D01*
X115275889Y-118094212D01*
X115401411Y-118166682D01*
X115401412Y-118166682D01*
X115401415Y-118166684D01*
X115541425Y-118204200D01*
X115541426Y-118204200D01*
X115686374Y-118204200D01*
X115686375Y-118204200D01*
X115826385Y-118166684D01*
X115826387Y-118166682D01*
X115826389Y-118166682D01*
X115951910Y-118094212D01*
X115951910Y-118094211D01*
X115951915Y-118094209D01*
X116054409Y-117991715D01*
X116054638Y-117991318D01*
X116126882Y-117866189D01*
X116126882Y-117866187D01*
X116126884Y-117866185D01*
X116164400Y-117726175D01*
X116164400Y-117581225D01*
X116126884Y-117441215D01*
X116126882Y-117441212D01*
X116126882Y-117441210D01*
X116054412Y-117315689D01*
X116054410Y-117315687D01*
X116054409Y-117315685D01*
X115951915Y-117213191D01*
X115951912Y-117213189D01*
X115951910Y-117213187D01*
X115826388Y-117140717D01*
X115826389Y-117140717D01*
X115770759Y-117125811D01*
X115686375Y-117103200D01*
X115541425Y-117103200D01*
X115509330Y-117111800D01*
X115401410Y-117140717D01*
X115275889Y-117213187D01*
X115173387Y-117315689D01*
X115100917Y-117441210D01*
X115063400Y-117581225D01*
X113365002Y-117581225D01*
X113431585Y-117563384D01*
X113431587Y-117563382D01*
X113431589Y-117563382D01*
X113557109Y-117490913D01*
X113557110Y-117490911D01*
X113557115Y-117490909D01*
X113659609Y-117388415D01*
X113702856Y-117313510D01*
X113732082Y-117262889D01*
X113732082Y-117262887D01*
X113732084Y-117262885D01*
X113769600Y-117122875D01*
X113769600Y-116977925D01*
X113732084Y-116837915D01*
X113732082Y-116837912D01*
X113732082Y-116837910D01*
X113659612Y-116712389D01*
X113659610Y-116712387D01*
X113659609Y-116712385D01*
X113557115Y-116609891D01*
X113557112Y-116609889D01*
X113557110Y-116609887D01*
X113431588Y-116537417D01*
X113431589Y-116537417D01*
X113390137Y-116526310D01*
X113291575Y-116499900D01*
X113146625Y-116499900D01*
X113107342Y-116510426D01*
X113006610Y-116537417D01*
X112881089Y-116609887D01*
X112778587Y-116712389D01*
X112706117Y-116837910D01*
X112675738Y-116951285D01*
X112668600Y-116977925D01*
X100400000Y-116977925D01*
X100400000Y-114927225D01*
X105685100Y-114927225D01*
X105685100Y-115072174D01*
X105722617Y-115212189D01*
X105795087Y-115337710D01*
X105795089Y-115337712D01*
X105795091Y-115337715D01*
X105897585Y-115440209D01*
X105897587Y-115440210D01*
X105897589Y-115440212D01*
X106023111Y-115512682D01*
X106023112Y-115512682D01*
X106023115Y-115512684D01*
X106163125Y-115550200D01*
X106163126Y-115550200D01*
X106308074Y-115550200D01*
X106308075Y-115550200D01*
X106448085Y-115512684D01*
X106448087Y-115512682D01*
X106448089Y-115512682D01*
X106573610Y-115440212D01*
X106573610Y-115440211D01*
X106573615Y-115440209D01*
X106676109Y-115337715D01*
X106689339Y-115314800D01*
X106748582Y-115212189D01*
X106748582Y-115212187D01*
X106748584Y-115212185D01*
X106786100Y-115072175D01*
X106786100Y-114927225D01*
X106748584Y-114787215D01*
X106746377Y-114783393D01*
X106718343Y-114734836D01*
X106718342Y-114734833D01*
X106693511Y-114691825D01*
X112186700Y-114691825D01*
X112186700Y-114836774D01*
X112224217Y-114976789D01*
X112296687Y-115102310D01*
X112296689Y-115102312D01*
X112296691Y-115102315D01*
X112399185Y-115204809D01*
X112399187Y-115204810D01*
X112399189Y-115204812D01*
X112524711Y-115277282D01*
X112524712Y-115277282D01*
X112524715Y-115277284D01*
X112664725Y-115314800D01*
X112664726Y-115314800D01*
X112809674Y-115314800D01*
X112809675Y-115314800D01*
X112949685Y-115277284D01*
X112949687Y-115277282D01*
X112949689Y-115277282D01*
X113075210Y-115204812D01*
X113075210Y-115204811D01*
X113075215Y-115204809D01*
X113177709Y-115102315D01*
X113190709Y-115079799D01*
X113250182Y-114976789D01*
X113250182Y-114976787D01*
X113250184Y-114976785D01*
X113287700Y-114836775D01*
X113287700Y-114800825D01*
X116558400Y-114800825D01*
X116558400Y-114945774D01*
X116595917Y-115085789D01*
X116668387Y-115211310D01*
X116668389Y-115211312D01*
X116668391Y-115211315D01*
X116770885Y-115313809D01*
X116770887Y-115313810D01*
X116770889Y-115313812D01*
X116896411Y-115386282D01*
X116896412Y-115386282D01*
X116896415Y-115386284D01*
X117036425Y-115423800D01*
X117036426Y-115423800D01*
X117181374Y-115423800D01*
X117181375Y-115423800D01*
X117321385Y-115386284D01*
X117321387Y-115386282D01*
X117321389Y-115386282D01*
X117446910Y-115313812D01*
X117446910Y-115313811D01*
X117446915Y-115313809D01*
X117549409Y-115211315D01*
X117557650Y-115197041D01*
X117621882Y-115085789D01*
X117621882Y-115085787D01*
X117621884Y-115085785D01*
X117659400Y-114945775D01*
X117659400Y-114800825D01*
X117621884Y-114660815D01*
X117621882Y-114660812D01*
X117621882Y-114660810D01*
X117549412Y-114535289D01*
X117549410Y-114535287D01*
X117549409Y-114535285D01*
X117446915Y-114432791D01*
X117446912Y-114432789D01*
X117446910Y-114432787D01*
X117381932Y-114395272D01*
X117321388Y-114360317D01*
X117321389Y-114360317D01*
X117243080Y-114339334D01*
X117181375Y-114322800D01*
X117036425Y-114322800D01*
X116974720Y-114339334D01*
X116896410Y-114360317D01*
X116770889Y-114432787D01*
X116668387Y-114535289D01*
X116595917Y-114660810D01*
X116558400Y-114800825D01*
X113287700Y-114800825D01*
X113287700Y-114691825D01*
X113250184Y-114551815D01*
X113250182Y-114551812D01*
X113250182Y-114551810D01*
X113177712Y-114426289D01*
X113177710Y-114426287D01*
X113177709Y-114426285D01*
X113075215Y-114323791D01*
X113075212Y-114323789D01*
X113075210Y-114323787D01*
X113061766Y-114316025D01*
X118199500Y-114316025D01*
X118199500Y-114460975D01*
X118219412Y-114535285D01*
X118237017Y-114600989D01*
X118309487Y-114726510D01*
X118309489Y-114726512D01*
X118309491Y-114726515D01*
X118411985Y-114829009D01*
X118411987Y-114829010D01*
X118411989Y-114829012D01*
X118537511Y-114901482D01*
X118537512Y-114901482D01*
X118537515Y-114901484D01*
X118677525Y-114939000D01*
X118677526Y-114939000D01*
X118822474Y-114939000D01*
X118822475Y-114939000D01*
X118962485Y-114901484D01*
X118962487Y-114901482D01*
X118962489Y-114901482D01*
X119088010Y-114829012D01*
X119088010Y-114829011D01*
X119088015Y-114829009D01*
X119190509Y-114726515D01*
X119203681Y-114703700D01*
X119262982Y-114600989D01*
X119262982Y-114600987D01*
X119262984Y-114600985D01*
X119300500Y-114460975D01*
X119300500Y-114339334D01*
X119319407Y-114281143D01*
X119329496Y-114269330D01*
X120683731Y-112915096D01*
X120738248Y-112887319D01*
X120753735Y-112886100D01*
X131895369Y-112886100D01*
X131953560Y-112905007D01*
X131965366Y-112915090D01*
X132051385Y-113001109D01*
X132051387Y-113001110D01*
X132051389Y-113001112D01*
X132176911Y-113073582D01*
X132176912Y-113073582D01*
X132176915Y-113073584D01*
X132316925Y-113111100D01*
X132316926Y-113111100D01*
X132461874Y-113111100D01*
X132461875Y-113111100D01*
X132601885Y-113073584D01*
X132601887Y-113073582D01*
X132601889Y-113073582D01*
X132727410Y-113001112D01*
X132727410Y-113001111D01*
X132727415Y-113001109D01*
X132829909Y-112898615D01*
X132864768Y-112838236D01*
X132910235Y-112797298D01*
X132971085Y-112790901D01*
X133020507Y-112817734D01*
X133992104Y-113789331D01*
X134019881Y-113843848D01*
X134021100Y-113859335D01*
X134021100Y-113980975D01*
X134047828Y-114080725D01*
X134058617Y-114120989D01*
X134131087Y-114246510D01*
X134131089Y-114246512D01*
X134131091Y-114246515D01*
X134233585Y-114349009D01*
X134233587Y-114349010D01*
X134233589Y-114349012D01*
X134359111Y-114421482D01*
X134359112Y-114421482D01*
X134359115Y-114421484D01*
X134499125Y-114459000D01*
X134499126Y-114459000D01*
X134644074Y-114459000D01*
X134644075Y-114459000D01*
X134784085Y-114421484D01*
X134784087Y-114421482D01*
X134784089Y-114421482D01*
X134909610Y-114349012D01*
X134909610Y-114349011D01*
X134909615Y-114349009D01*
X135012109Y-114246515D01*
X135030997Y-114213800D01*
X135084582Y-114120989D01*
X135084582Y-114120987D01*
X135084584Y-114120985D01*
X135122100Y-113980975D01*
X135122100Y-113836025D01*
X135084584Y-113696015D01*
X135084582Y-113696012D01*
X135084582Y-113696010D01*
X135012112Y-113570489D01*
X135012110Y-113570487D01*
X135012109Y-113570485D01*
X134909615Y-113467991D01*
X134909612Y-113467989D01*
X134909610Y-113467987D01*
X134784088Y-113395517D01*
X134784089Y-113395517D01*
X134754496Y-113387587D01*
X134644075Y-113358000D01*
X134522435Y-113358000D01*
X134464244Y-113339093D01*
X134452431Y-113329004D01*
X133687137Y-112563710D01*
X132773252Y-111649825D01*
X141699500Y-111649825D01*
X141699500Y-111794775D01*
X141712668Y-111843919D01*
X141737017Y-111934789D01*
X141809487Y-112060310D01*
X141809489Y-112060312D01*
X141809491Y-112060315D01*
X141911985Y-112162809D01*
X141911987Y-112162810D01*
X141911989Y-112162812D01*
X142037511Y-112235282D01*
X142037512Y-112235282D01*
X142037515Y-112235284D01*
X142177525Y-112272800D01*
X142177526Y-112272800D01*
X142322474Y-112272800D01*
X142322475Y-112272800D01*
X142462485Y-112235284D01*
X142462487Y-112235282D01*
X142462489Y-112235282D01*
X142588010Y-112162812D01*
X142588010Y-112162811D01*
X142588015Y-112162809D01*
X142690509Y-112060315D01*
X142725918Y-111998985D01*
X142762982Y-111934789D01*
X142762982Y-111934787D01*
X142762984Y-111934785D01*
X142800500Y-111794775D01*
X142800500Y-111649825D01*
X142762984Y-111509815D01*
X142762982Y-111509812D01*
X142762982Y-111509810D01*
X142690512Y-111384289D01*
X142690510Y-111384287D01*
X142690509Y-111384285D01*
X142588015Y-111281791D01*
X142588012Y-111281789D01*
X142588010Y-111281787D01*
X142462488Y-111209317D01*
X142462489Y-111209317D01*
X142406934Y-111194431D01*
X142322475Y-111171800D01*
X142177525Y-111171800D01*
X142115790Y-111188341D01*
X142037510Y-111209317D01*
X141911989Y-111281787D01*
X141809487Y-111384289D01*
X141737017Y-111509810D01*
X141703604Y-111634510D01*
X141699500Y-111649825D01*
X132773252Y-111649825D01*
X132317862Y-111194435D01*
X132317859Y-111194433D01*
X132317857Y-111194431D01*
X132243642Y-111151583D01*
X132243644Y-111151583D01*
X132211521Y-111142976D01*
X132160853Y-111129400D01*
X132160851Y-111129400D01*
X129302235Y-111129400D01*
X129244044Y-111110493D01*
X129232231Y-111100404D01*
X128572912Y-110441085D01*
X127912862Y-109781035D01*
X127912859Y-109781033D01*
X127912858Y-109781032D01*
X127912857Y-109781031D01*
X127838642Y-109738183D01*
X127838644Y-109738183D01*
X127806521Y-109729576D01*
X127755853Y-109716000D01*
X127755851Y-109716000D01*
X126711632Y-109716000D01*
X126711616Y-109715999D01*
X126705553Y-109715999D01*
X126619847Y-109715999D01*
X126619844Y-109715999D01*
X126537062Y-109738181D01*
X126537058Y-109738183D01*
X126462838Y-109781034D01*
X126402234Y-109841637D01*
X126402235Y-109841638D01*
X125036869Y-111207004D01*
X124982352Y-111234781D01*
X124966865Y-111236000D01*
X124845225Y-111236000D01*
X124783490Y-111252541D01*
X124705210Y-111273517D01*
X124579689Y-111345987D01*
X124477187Y-111448489D01*
X124404717Y-111574010D01*
X124379712Y-111667329D01*
X124367200Y-111714025D01*
X124367200Y-111858975D01*
X124387515Y-111934789D01*
X124404717Y-111998989D01*
X124455300Y-112086600D01*
X124468022Y-112146448D01*
X124443136Y-112202344D01*
X124390148Y-112232937D01*
X124369564Y-112235100D01*
X120620753Y-112235100D01*
X120535047Y-112235100D01*
X120484378Y-112248676D01*
X120452256Y-112257283D01*
X120378042Y-112300131D01*
X120378041Y-112300132D01*
X118869168Y-113809004D01*
X118814651Y-113836781D01*
X118799164Y-113838000D01*
X118677525Y-113838000D01*
X118615790Y-113854541D01*
X118537510Y-113875517D01*
X118411989Y-113947987D01*
X118309487Y-114050489D01*
X118237017Y-114176010D01*
X118212012Y-114269330D01*
X118199500Y-114316025D01*
X113061766Y-114316025D01*
X112949688Y-114251317D01*
X112949689Y-114251317D01*
X112920096Y-114243387D01*
X112809675Y-114213800D01*
X112664725Y-114213800D01*
X112602990Y-114230341D01*
X112524710Y-114251317D01*
X112399189Y-114323787D01*
X112296687Y-114426289D01*
X112224217Y-114551810D01*
X112186700Y-114691825D01*
X106693511Y-114691825D01*
X106676112Y-114661689D01*
X106676110Y-114661687D01*
X106676109Y-114661685D01*
X106573615Y-114559191D01*
X106573612Y-114559189D01*
X106573610Y-114559187D01*
X106448088Y-114486717D01*
X106448089Y-114486717D01*
X106418496Y-114478787D01*
X106308075Y-114449200D01*
X106163125Y-114449200D01*
X106101390Y-114465741D01*
X106023110Y-114486717D01*
X105897589Y-114559187D01*
X105795087Y-114661689D01*
X105722617Y-114787210D01*
X105685100Y-114927225D01*
X100400000Y-114927225D01*
X100400000Y-114080725D01*
X104179000Y-114080725D01*
X104179000Y-114225675D01*
X104204938Y-114322474D01*
X104216517Y-114365689D01*
X104288987Y-114491210D01*
X104288989Y-114491212D01*
X104288991Y-114491215D01*
X104391485Y-114593709D01*
X104391487Y-114593710D01*
X104391489Y-114593712D01*
X104517011Y-114666182D01*
X104517012Y-114666182D01*
X104517015Y-114666184D01*
X104657025Y-114703700D01*
X104657026Y-114703700D01*
X104801974Y-114703700D01*
X104801975Y-114703700D01*
X104941985Y-114666184D01*
X104941987Y-114666182D01*
X104941989Y-114666182D01*
X105067510Y-114593712D01*
X105067510Y-114593711D01*
X105067515Y-114593709D01*
X105170009Y-114491215D01*
X105187469Y-114460974D01*
X105242482Y-114365689D01*
X105242482Y-114365687D01*
X105242484Y-114365685D01*
X105280000Y-114225675D01*
X105280000Y-114080725D01*
X105242484Y-113940715D01*
X105242482Y-113940712D01*
X105242482Y-113940710D01*
X105170012Y-113815189D01*
X105170010Y-113815187D01*
X105170009Y-113815185D01*
X105067515Y-113712691D01*
X105067512Y-113712689D01*
X105067510Y-113712687D01*
X104941988Y-113640217D01*
X104941989Y-113640217D01*
X104909408Y-113631487D01*
X104801975Y-113602700D01*
X104657025Y-113602700D01*
X104595290Y-113619241D01*
X104517010Y-113640217D01*
X104391489Y-113712687D01*
X104288987Y-113815189D01*
X104216517Y-113940710D01*
X104190578Y-114037515D01*
X104179000Y-114080725D01*
X100400000Y-114080725D01*
X100400000Y-113360725D01*
X115829100Y-113360725D01*
X115829100Y-113505675D01*
X115843393Y-113559016D01*
X115866617Y-113645689D01*
X115939087Y-113771210D01*
X115939089Y-113771212D01*
X115939091Y-113771215D01*
X116041585Y-113873709D01*
X116041587Y-113873710D01*
X116041589Y-113873712D01*
X116167111Y-113946182D01*
X116167112Y-113946182D01*
X116167115Y-113946184D01*
X116307125Y-113983700D01*
X116307126Y-113983700D01*
X116452074Y-113983700D01*
X116452075Y-113983700D01*
X116592085Y-113946184D01*
X116592087Y-113946182D01*
X116592089Y-113946182D01*
X116717610Y-113873712D01*
X116717610Y-113873711D01*
X116717615Y-113873709D01*
X116820109Y-113771215D01*
X116868038Y-113688200D01*
X116892582Y-113645689D01*
X116892582Y-113645687D01*
X116892584Y-113645685D01*
X116930100Y-113505675D01*
X116930100Y-113360725D01*
X116892584Y-113220715D01*
X116892582Y-113220712D01*
X116892582Y-113220710D01*
X116820112Y-113095189D01*
X116820110Y-113095187D01*
X116820109Y-113095185D01*
X116717615Y-112992691D01*
X116717612Y-112992689D01*
X116717610Y-112992687D01*
X116592088Y-112920217D01*
X116592089Y-112920217D01*
X116535325Y-112905007D01*
X116452075Y-112882700D01*
X116307125Y-112882700D01*
X116247741Y-112898612D01*
X116167110Y-112920217D01*
X116041589Y-112992687D01*
X115939087Y-113095189D01*
X115866617Y-113220710D01*
X115838217Y-113326700D01*
X115829100Y-113360725D01*
X100400000Y-113360725D01*
X100400000Y-112659825D01*
X106167900Y-112659825D01*
X106167900Y-112804775D01*
X106176867Y-112838239D01*
X106205417Y-112944789D01*
X106277887Y-113070310D01*
X106277889Y-113070312D01*
X106277891Y-113070315D01*
X106380385Y-113172809D01*
X106380387Y-113172810D01*
X106380389Y-113172812D01*
X106505911Y-113245282D01*
X106505912Y-113245282D01*
X106505915Y-113245284D01*
X106645925Y-113282800D01*
X106645926Y-113282800D01*
X106790874Y-113282800D01*
X106790875Y-113282800D01*
X106930885Y-113245284D01*
X106930887Y-113245282D01*
X106930889Y-113245282D01*
X107056410Y-113172812D01*
X107056410Y-113172811D01*
X107056415Y-113172809D01*
X107158909Y-113070315D01*
X107158912Y-113070310D01*
X107231382Y-112944789D01*
X107231382Y-112944787D01*
X107231384Y-112944785D01*
X107268900Y-112804775D01*
X107268900Y-112703725D01*
X112660600Y-112703725D01*
X112660600Y-112848674D01*
X112698117Y-112988689D01*
X112770587Y-113114210D01*
X112770589Y-113114212D01*
X112770591Y-113114215D01*
X112873085Y-113216709D01*
X112873087Y-113216710D01*
X112873089Y-113216712D01*
X112998611Y-113289182D01*
X112998612Y-113289182D01*
X112998615Y-113289184D01*
X113138625Y-113326700D01*
X113138626Y-113326700D01*
X113283574Y-113326700D01*
X113283575Y-113326700D01*
X113423585Y-113289184D01*
X113423587Y-113289182D01*
X113423589Y-113289182D01*
X113459412Y-113268500D01*
X113549110Y-113216712D01*
X113549110Y-113216711D01*
X113549115Y-113216709D01*
X113651609Y-113114215D01*
X113651612Y-113114210D01*
X113724082Y-112988689D01*
X113724082Y-112988687D01*
X113724084Y-112988685D01*
X113761600Y-112848675D01*
X113761600Y-112703725D01*
X113724084Y-112563715D01*
X113724082Y-112563712D01*
X113724082Y-112563710D01*
X113651612Y-112438189D01*
X113651610Y-112438187D01*
X113651609Y-112438185D01*
X113549115Y-112335691D01*
X113549112Y-112335689D01*
X113549110Y-112335687D01*
X113423588Y-112263217D01*
X113423589Y-112263217D01*
X113393996Y-112255287D01*
X113283575Y-112225700D01*
X113138625Y-112225700D01*
X113076890Y-112242241D01*
X112998610Y-112263217D01*
X112873089Y-112335687D01*
X112770587Y-112438189D01*
X112698117Y-112563710D01*
X112660600Y-112703725D01*
X107268900Y-112703725D01*
X107268900Y-112659825D01*
X107231384Y-112519815D01*
X107231382Y-112519812D01*
X107231382Y-112519810D01*
X107158912Y-112394289D01*
X107158910Y-112394287D01*
X107158909Y-112394285D01*
X107056415Y-112291791D01*
X107056412Y-112291789D01*
X107056410Y-112291787D01*
X106930888Y-112219317D01*
X106930889Y-112219317D01*
X106867545Y-112202344D01*
X106790875Y-112181800D01*
X106645925Y-112181800D01*
X106584190Y-112198341D01*
X106505910Y-112219317D01*
X106380389Y-112291787D01*
X106277887Y-112394289D01*
X106205417Y-112519810D01*
X106205416Y-112519815D01*
X106167900Y-112659825D01*
X100400000Y-112659825D01*
X100400000Y-108716925D01*
X104449500Y-108716925D01*
X104449500Y-108861875D01*
X104475311Y-108958200D01*
X104487017Y-109001889D01*
X104559487Y-109127410D01*
X104559489Y-109127412D01*
X104559491Y-109127415D01*
X104661985Y-109229909D01*
X104661987Y-109229910D01*
X104661989Y-109229912D01*
X104787511Y-109302382D01*
X104787512Y-109302382D01*
X104787515Y-109302384D01*
X104927525Y-109339900D01*
X104927526Y-109339900D01*
X105072474Y-109339900D01*
X105072475Y-109339900D01*
X105212485Y-109302384D01*
X105212487Y-109302382D01*
X105212489Y-109302382D01*
X105338010Y-109229912D01*
X105338010Y-109229911D01*
X105338015Y-109229909D01*
X105440509Y-109127415D01*
X105474702Y-109068191D01*
X105512982Y-109001889D01*
X105512982Y-109001887D01*
X105512984Y-109001885D01*
X105550500Y-108861875D01*
X105550500Y-108791925D01*
X107037300Y-108791925D01*
X107037300Y-108936875D01*
X107066887Y-109047296D01*
X107074817Y-109076889D01*
X107147287Y-109202410D01*
X107147289Y-109202412D01*
X107147291Y-109202415D01*
X107249785Y-109304909D01*
X107249787Y-109304910D01*
X107249789Y-109304912D01*
X107375311Y-109377382D01*
X107375312Y-109377382D01*
X107375315Y-109377384D01*
X107515325Y-109414900D01*
X107515326Y-109414900D01*
X107660274Y-109414900D01*
X107660275Y-109414900D01*
X107800285Y-109377384D01*
X107800287Y-109377382D01*
X107800289Y-109377382D01*
X107925810Y-109304912D01*
X107925810Y-109304911D01*
X107925815Y-109304909D01*
X108028309Y-109202415D01*
X108033105Y-109194109D01*
X108064049Y-109140512D01*
X108100784Y-109076885D01*
X108102569Y-109070225D01*
X108668200Y-109070225D01*
X108668200Y-109215175D01*
X108689136Y-109293307D01*
X108705717Y-109355189D01*
X108778187Y-109480710D01*
X108778189Y-109480712D01*
X108778191Y-109480715D01*
X108880685Y-109583209D01*
X108880687Y-109583210D01*
X108880689Y-109583212D01*
X109006211Y-109655682D01*
X109006212Y-109655682D01*
X109006215Y-109655684D01*
X109146225Y-109693200D01*
X109146226Y-109693200D01*
X109291174Y-109693200D01*
X109291175Y-109693200D01*
X109431185Y-109655684D01*
X109431187Y-109655682D01*
X109431189Y-109655682D01*
X109556710Y-109583212D01*
X109556710Y-109583211D01*
X109556715Y-109583209D01*
X109659209Y-109480715D01*
X109659212Y-109480710D01*
X109731682Y-109355189D01*
X109731682Y-109355187D01*
X109731684Y-109355185D01*
X109769200Y-109215175D01*
X109769200Y-109070225D01*
X109731684Y-108930215D01*
X109731682Y-108930212D01*
X109731682Y-108930210D01*
X109659212Y-108804689D01*
X109659210Y-108804687D01*
X109659209Y-108804685D01*
X109589049Y-108734525D01*
X115196900Y-108734525D01*
X115196900Y-108879475D01*
X115217995Y-108958200D01*
X115234417Y-109019489D01*
X115306887Y-109145010D01*
X115306889Y-109145012D01*
X115306891Y-109145015D01*
X115409385Y-109247509D01*
X115409387Y-109247510D01*
X115409389Y-109247512D01*
X115534911Y-109319982D01*
X115534912Y-109319982D01*
X115534915Y-109319984D01*
X115674925Y-109357500D01*
X115674926Y-109357500D01*
X115819874Y-109357500D01*
X115819875Y-109357500D01*
X115959885Y-109319984D01*
X115959887Y-109319982D01*
X115959889Y-109319982D01*
X116085410Y-109247512D01*
X116085410Y-109247511D01*
X116085415Y-109247509D01*
X116187909Y-109145015D01*
X116190511Y-109140509D01*
X116260382Y-109019489D01*
X116260382Y-109019487D01*
X116260384Y-109019485D01*
X116297900Y-108879475D01*
X116297900Y-108734525D01*
X116262102Y-108600925D01*
X127696500Y-108600925D01*
X127696500Y-108745874D01*
X127734017Y-108885889D01*
X127806487Y-109011410D01*
X127806489Y-109011412D01*
X127806491Y-109011415D01*
X127908985Y-109113909D01*
X127908987Y-109113910D01*
X127908989Y-109113912D01*
X128034511Y-109186382D01*
X128034512Y-109186382D01*
X128034515Y-109186384D01*
X128174525Y-109223900D01*
X128174526Y-109223900D01*
X128319474Y-109223900D01*
X128319475Y-109223900D01*
X128459485Y-109186384D01*
X128467163Y-109181950D01*
X128527010Y-109169226D01*
X128582907Y-109194109D01*
X128613503Y-109247095D01*
X128612295Y-109293307D01*
X128574000Y-109436225D01*
X128574000Y-109581174D01*
X128611517Y-109721189D01*
X128683987Y-109846710D01*
X128683989Y-109846712D01*
X128683991Y-109846715D01*
X128786485Y-109949209D01*
X128786487Y-109949210D01*
X128786489Y-109949212D01*
X128912011Y-110021682D01*
X128912012Y-110021682D01*
X128912015Y-110021684D01*
X129052025Y-110059200D01*
X129052026Y-110059200D01*
X129196974Y-110059200D01*
X129196975Y-110059200D01*
X129336985Y-110021684D01*
X129336987Y-110021682D01*
X129336989Y-110021682D01*
X129462510Y-109949212D01*
X129462510Y-109949211D01*
X129462515Y-109949209D01*
X129565009Y-109846715D01*
X129567941Y-109841637D01*
X129637482Y-109721189D01*
X129637482Y-109721187D01*
X129637484Y-109721185D01*
X129675000Y-109581175D01*
X129675000Y-109436225D01*
X129637484Y-109296215D01*
X129637482Y-109296212D01*
X129637482Y-109296210D01*
X129565012Y-109170689D01*
X129565010Y-109170687D01*
X129565009Y-109170685D01*
X129462515Y-109068191D01*
X129462512Y-109068189D01*
X129462510Y-109068187D01*
X129336988Y-108995717D01*
X129336989Y-108995717D01*
X129307396Y-108987787D01*
X129196975Y-108958200D01*
X129052025Y-108958200D01*
X128912015Y-108995716D01*
X128912014Y-108995716D01*
X128912012Y-108995717D01*
X128904329Y-109000153D01*
X128844480Y-109012872D01*
X128788585Y-108987985D01*
X128757994Y-108934996D01*
X128759205Y-108888791D01*
X128759984Y-108885885D01*
X128797500Y-108745875D01*
X128797500Y-108638715D01*
X128798335Y-108636144D01*
X128797636Y-108633534D01*
X128799942Y-108627525D01*
X140329300Y-108627525D01*
X140329300Y-108772474D01*
X140366817Y-108912489D01*
X140439287Y-109038010D01*
X140439289Y-109038012D01*
X140439291Y-109038015D01*
X140541785Y-109140509D01*
X140541787Y-109140510D01*
X140541789Y-109140512D01*
X140667311Y-109212982D01*
X140667312Y-109212982D01*
X140667315Y-109212984D01*
X140807325Y-109250500D01*
X140807326Y-109250500D01*
X140952274Y-109250500D01*
X140952275Y-109250500D01*
X141092285Y-109212984D01*
X141092287Y-109212982D01*
X141092289Y-109212982D01*
X141217810Y-109140512D01*
X141217810Y-109140511D01*
X141217815Y-109140509D01*
X141320309Y-109038015D01*
X141331007Y-109019485D01*
X141392782Y-108912489D01*
X141392782Y-108912487D01*
X141392784Y-108912485D01*
X141430300Y-108772475D01*
X141430300Y-108627525D01*
X141392784Y-108487515D01*
X141392782Y-108487512D01*
X141392782Y-108487510D01*
X141320312Y-108361989D01*
X141320310Y-108361987D01*
X141320309Y-108361985D01*
X141217815Y-108259491D01*
X141217812Y-108259489D01*
X141217810Y-108259487D01*
X141092288Y-108187017D01*
X141092289Y-108187017D01*
X140993017Y-108160417D01*
X140952275Y-108149500D01*
X140807325Y-108149500D01*
X140766583Y-108160417D01*
X140667310Y-108187017D01*
X140541789Y-108259487D01*
X140439287Y-108361989D01*
X140366817Y-108487510D01*
X140329300Y-108627525D01*
X128799942Y-108627525D01*
X128807713Y-108607280D01*
X128816407Y-108580524D01*
X128818593Y-108578935D01*
X128819562Y-108576413D01*
X128843143Y-108561098D01*
X128865907Y-108544560D01*
X128870857Y-108543093D01*
X128971285Y-108516184D01*
X128971287Y-108516182D01*
X128971289Y-108516182D01*
X129096810Y-108443712D01*
X129096810Y-108443711D01*
X129096815Y-108443709D01*
X129199309Y-108341215D01*
X129202675Y-108335385D01*
X129271782Y-108215689D01*
X129271782Y-108215687D01*
X129271784Y-108215685D01*
X129309300Y-108075675D01*
X129309300Y-107930725D01*
X129271784Y-107790715D01*
X129271782Y-107790712D01*
X129271782Y-107790710D01*
X129199312Y-107665189D01*
X129199310Y-107665187D01*
X129199309Y-107665185D01*
X129096815Y-107562691D01*
X129096812Y-107562689D01*
X129096810Y-107562687D01*
X128971288Y-107490217D01*
X128971289Y-107490217D01*
X128941696Y-107482287D01*
X128831275Y-107452700D01*
X128686325Y-107452700D01*
X128624590Y-107469241D01*
X128546310Y-107490217D01*
X128420789Y-107562687D01*
X128318287Y-107665189D01*
X128245817Y-107790710D01*
X128208300Y-107930725D01*
X128208300Y-108037884D01*
X128189393Y-108096075D01*
X128139893Y-108132039D01*
X128134924Y-108133510D01*
X128034515Y-108160415D01*
X128034511Y-108160417D01*
X127908989Y-108232887D01*
X127806487Y-108335389D01*
X127734017Y-108460910D01*
X127696500Y-108600925D01*
X116262102Y-108600925D01*
X116260384Y-108594515D01*
X116260382Y-108594512D01*
X116260382Y-108594510D01*
X116187912Y-108468989D01*
X116187910Y-108468987D01*
X116187909Y-108468985D01*
X116085415Y-108366491D01*
X116085412Y-108366489D01*
X116085410Y-108366487D01*
X115959888Y-108294017D01*
X115959889Y-108294017D01*
X115894205Y-108276417D01*
X115819875Y-108256500D01*
X115674925Y-108256500D01*
X115663763Y-108259491D01*
X115534910Y-108294017D01*
X115409389Y-108366487D01*
X115306887Y-108468989D01*
X115234417Y-108594510D01*
X115205565Y-108702187D01*
X115196900Y-108734525D01*
X109589049Y-108734525D01*
X109556715Y-108702191D01*
X109556712Y-108702189D01*
X109556710Y-108702187D01*
X109431188Y-108629717D01*
X109431189Y-108629717D01*
X109395145Y-108620059D01*
X109291175Y-108592200D01*
X109146225Y-108592200D01*
X109089946Y-108607280D01*
X109006210Y-108629717D01*
X108880689Y-108702187D01*
X108778187Y-108804689D01*
X108705717Y-108930210D01*
X108683958Y-109011415D01*
X108668200Y-109070225D01*
X108102569Y-109070225D01*
X108138300Y-108936875D01*
X108138300Y-108791925D01*
X108100784Y-108651915D01*
X108100782Y-108651912D01*
X108100782Y-108651910D01*
X108028312Y-108526389D01*
X108028310Y-108526387D01*
X108028309Y-108526385D01*
X107925815Y-108423891D01*
X107925812Y-108423889D01*
X107925810Y-108423887D01*
X107800288Y-108351417D01*
X107800289Y-108351417D01*
X107740457Y-108335385D01*
X107660275Y-108313900D01*
X107515325Y-108313900D01*
X107453590Y-108330441D01*
X107375310Y-108351417D01*
X107249789Y-108423887D01*
X107147287Y-108526389D01*
X107074817Y-108651910D01*
X107061344Y-108702191D01*
X107037300Y-108791925D01*
X105550500Y-108791925D01*
X105550500Y-108716925D01*
X105512984Y-108576915D01*
X105512982Y-108576912D01*
X105512982Y-108576910D01*
X105440512Y-108451389D01*
X105440510Y-108451387D01*
X105440509Y-108451385D01*
X105338015Y-108348891D01*
X105338012Y-108348889D01*
X105338010Y-108348887D01*
X105212488Y-108276417D01*
X105212489Y-108276417D01*
X105182896Y-108268487D01*
X105072475Y-108238900D01*
X104927525Y-108238900D01*
X104865790Y-108255441D01*
X104787510Y-108276417D01*
X104661989Y-108348887D01*
X104559487Y-108451389D01*
X104487017Y-108576910D01*
X104453449Y-108702187D01*
X104449500Y-108716925D01*
X100400000Y-108716925D01*
X100400000Y-105137025D01*
X117997700Y-105137025D01*
X117997700Y-105281974D01*
X118035217Y-105421989D01*
X118107687Y-105547510D01*
X118107689Y-105547512D01*
X118107691Y-105547515D01*
X118210185Y-105650009D01*
X118210187Y-105650010D01*
X118210189Y-105650012D01*
X118335711Y-105722482D01*
X118335712Y-105722482D01*
X118335715Y-105722484D01*
X118475725Y-105760000D01*
X118475726Y-105760000D01*
X118620674Y-105760000D01*
X118620675Y-105760000D01*
X118760685Y-105722484D01*
X118760687Y-105722482D01*
X118760689Y-105722482D01*
X118886210Y-105650012D01*
X118886210Y-105650011D01*
X118886215Y-105650009D01*
X118988709Y-105547515D01*
X119061184Y-105421985D01*
X119098700Y-105281975D01*
X119098700Y-105137025D01*
X119061184Y-104997015D01*
X119061182Y-104997012D01*
X119061182Y-104997010D01*
X118988712Y-104871489D01*
X118988710Y-104871487D01*
X118988709Y-104871485D01*
X118886215Y-104768991D01*
X118886212Y-104768989D01*
X118886210Y-104768987D01*
X118760688Y-104696517D01*
X118760684Y-104696515D01*
X118736233Y-104689963D01*
X118736229Y-104689963D01*
X118620675Y-104659000D01*
X118475725Y-104659000D01*
X118413990Y-104675541D01*
X118335710Y-104696517D01*
X118210189Y-104768987D01*
X118107687Y-104871489D01*
X118035217Y-104997010D01*
X117997700Y-105137025D01*
X100400000Y-105137025D01*
X100400000Y-104300525D01*
X107758500Y-104300525D01*
X107758500Y-104445475D01*
X107788087Y-104555896D01*
X107796017Y-104585489D01*
X107868487Y-104711010D01*
X107868489Y-104711012D01*
X107868491Y-104711015D01*
X107970985Y-104813509D01*
X107970987Y-104813510D01*
X107970989Y-104813512D01*
X108096511Y-104885982D01*
X108096512Y-104885982D01*
X108096515Y-104885984D01*
X108236525Y-104923500D01*
X108236526Y-104923500D01*
X108381474Y-104923500D01*
X108381475Y-104923500D01*
X108521485Y-104885984D01*
X108521487Y-104885982D01*
X108521489Y-104885982D01*
X108647010Y-104813512D01*
X108647010Y-104813511D01*
X108647015Y-104813509D01*
X108749509Y-104711015D01*
X108749512Y-104711010D01*
X108813128Y-104600825D01*
X129590800Y-104600825D01*
X129590800Y-104745775D01*
X129608950Y-104813512D01*
X129628317Y-104885789D01*
X129700787Y-105011310D01*
X129700789Y-105011312D01*
X129700791Y-105011315D01*
X129803285Y-105113809D01*
X129803287Y-105113810D01*
X129803289Y-105113812D01*
X129928811Y-105186282D01*
X129928812Y-105186282D01*
X129928815Y-105186284D01*
X130068825Y-105223800D01*
X130068826Y-105223800D01*
X130213774Y-105223800D01*
X130213775Y-105223800D01*
X130353785Y-105186284D01*
X130353787Y-105186282D01*
X130353789Y-105186282D01*
X130479310Y-105113812D01*
X130479310Y-105113811D01*
X130479315Y-105113809D01*
X130581809Y-105011315D01*
X130654169Y-104885984D01*
X130654282Y-104885789D01*
X130654282Y-104885787D01*
X130654284Y-104885785D01*
X130691800Y-104745775D01*
X130691800Y-104600825D01*
X130654284Y-104460815D01*
X130654281Y-104460810D01*
X130651134Y-104455358D01*
X130638413Y-104395510D01*
X130663300Y-104339614D01*
X130666849Y-104335874D01*
X130756609Y-104246115D01*
X130764302Y-104232791D01*
X130829082Y-104120589D01*
X130829083Y-104120586D01*
X130829084Y-104120585D01*
X130866600Y-103980575D01*
X130866600Y-103835625D01*
X130829084Y-103695615D01*
X130829082Y-103695612D01*
X130829082Y-103695610D01*
X130756612Y-103570089D01*
X130756610Y-103570087D01*
X130756609Y-103570085D01*
X130654115Y-103467591D01*
X130654112Y-103467589D01*
X130654110Y-103467587D01*
X130528588Y-103395117D01*
X130528589Y-103395117D01*
X130498996Y-103387187D01*
X130388575Y-103357600D01*
X130243625Y-103357600D01*
X130181890Y-103374141D01*
X130103610Y-103395117D01*
X129978089Y-103467587D01*
X129875587Y-103570089D01*
X129803117Y-103695610D01*
X129765600Y-103835625D01*
X129765600Y-103980574D01*
X129803116Y-104120586D01*
X129803117Y-104120588D01*
X129806266Y-104126042D01*
X129818985Y-104185891D01*
X129794097Y-104241786D01*
X129790532Y-104245542D01*
X129700791Y-104335283D01*
X129700787Y-104335289D01*
X129628317Y-104460810D01*
X129628316Y-104460815D01*
X129590800Y-104600825D01*
X108813128Y-104600825D01*
X108821982Y-104585489D01*
X108821982Y-104585487D01*
X108821984Y-104585485D01*
X108859500Y-104445475D01*
X108859500Y-104300525D01*
X108821984Y-104160515D01*
X108821982Y-104160512D01*
X108821982Y-104160510D01*
X108749512Y-104034989D01*
X108749510Y-104034987D01*
X108749509Y-104034985D01*
X108647015Y-103932491D01*
X108647012Y-103932489D01*
X108647010Y-103932487D01*
X108521488Y-103860017D01*
X108521489Y-103860017D01*
X108491896Y-103852087D01*
X108381475Y-103822500D01*
X108236525Y-103822500D01*
X108174790Y-103839041D01*
X108096510Y-103860017D01*
X107970989Y-103932487D01*
X107868487Y-104034989D01*
X107796017Y-104160510D01*
X107773079Y-104246115D01*
X107758500Y-104300525D01*
X100400000Y-104300525D01*
X100400000Y-102302836D01*
X100403869Y-102275430D01*
X100441561Y-102144596D01*
X100450450Y-102113742D01*
X100454108Y-102103286D01*
X100565710Y-101833857D01*
X100570524Y-101823862D01*
X100578914Y-101808682D01*
X100711582Y-101568636D01*
X100717474Y-101559257D01*
X100886245Y-101321398D01*
X100893130Y-101312764D01*
X101087475Y-101095293D01*
X101095293Y-101087475D01*
X101312764Y-100893130D01*
X101321398Y-100886245D01*
X101559257Y-100717474D01*
X101568636Y-100711582D01*
X101823868Y-100570520D01*
X101833857Y-100565710D01*
X102103286Y-100454108D01*
X102113742Y-100450450D01*
X102275430Y-100403868D01*
X102302836Y-100400000D01*
X116210993Y-100400000D01*
X116269184Y-100418907D01*
G37*
%TD.AperFunction*%
%TD*%
M02*
